<svg width="57" height="57" viewBox="0 0 57 57" fill="none" xmlns="http://www.w3.org/2000/svg">
<circle cx="28.5" cy="28.5" r="28.5" fill="black"/>
<path fill-rule="evenodd" clip-rule="evenodd" d="M24.9649 24.3324H30.0716V26.8761C30.8072 25.4131 32.6937 24.0986 35.5276 24.0986C40.9602 24.0986 42.25 27.0109 42.25 32.3541V42.25H36.75V33.571C36.75 30.5281 36.0144 28.8121 34.1416 28.8121C31.5442 28.8121 30.4649 30.6615 30.4649 33.5696V42.25H24.9649V24.3324V24.3324ZM15.5337 42.0162H21.0337V24.0986H15.5337V42.0162V42.0162ZM21.8216 18.2563C21.8218 18.7173 21.7304 19.1737 21.5527 19.5991C21.3749 20.0244 21.1144 20.4102 20.7862 20.734C20.1213 21.3949 19.2212 21.7648 18.2837 21.7625C17.3479 21.7619 16.4499 21.3929 15.784 20.7354C15.457 20.4105 15.1974 20.0243 15.02 19.5988C14.8425 19.1734 14.7508 18.7172 14.75 18.2563C14.75 17.3254 15.1212 16.4344 15.7854 15.7771C16.4507 15.1187 17.3491 14.7496 18.2851 14.75C19.2229 14.75 20.1221 15.1199 20.7862 15.7771C21.449 16.4344 21.8216 17.3254 21.8216 18.2563Z" fill="white"/>
</svg>
