<svg width="76" height="74" viewBox="0 0 76 74" fill="none" xmlns="http://www.w3.org/2000/svg">
<path d="M38.0042 3.17996e-06C17.0068 -0.0084889 0 16.9927 0 37.9766C0 54.5701 10.6388 68.6755 25.455 73.8556C27.4503 74.3567 27.1447 72.9385 27.1447 71.9704V65.389C15.6228 66.7393 15.1558 59.1134 14.3832 57.8396C12.8209 55.1731 9.12747 54.4937 10.2313 53.2199C12.8549 51.8696 15.5294 53.5596 18.6285 58.1368C20.8701 61.4572 25.2428 60.8967 27.4588 60.3447C27.9428 58.3491 28.9787 56.5658 30.4051 55.1815C18.4672 53.0415 13.4917 45.7553 13.4917 37.0934C13.4917 32.8898 14.8757 29.0259 17.5927 25.9093C15.8606 20.7716 17.754 16.3727 18.0087 15.7188C22.9418 15.2773 28.0702 19.2516 28.4692 19.5658C31.2711 18.81 34.4721 18.4108 38.0552 18.4108C41.6552 18.4108 44.8647 18.8269 47.6921 19.5912C48.6516 18.8609 53.4063 15.4471 57.9913 15.8632C58.2375 16.5171 60.0885 20.8141 58.4583 25.8839C61.2093 29.009 62.6102 32.9068 62.6102 37.1189C62.6102 45.7978 57.6007 53.0925 45.6289 55.1985C46.6543 56.2071 47.4685 57.41 48.0239 58.7368C48.5794 60.0637 48.8649 61.4879 48.8638 62.9263V72.4799C48.9317 73.2442 48.8638 74 50.1374 74C65.1744 68.9302 76 54.723 76 37.9851C76 16.9927 58.9847 3.17996e-06 38.0042 3.17996e-06V3.17996e-06Z" fill="black"/>
</svg>
