<svg viewBox="0 0 20 32" fill="none" xmlns="http://www.w3.org/2000/svg">
<path d="M10 6C10.2652 6 10.5196 6.10536 10.7071 6.29289C10.8946 6.48043 11 6.73478 11 7V11C11 11.2652 10.8946 11.5196 10.7071 11.7071C10.5196 11.8946 10.2652 12 10 12C9.73478 12 9.48043 11.8946 9.29289 11.7071C9.10536 11.5196 9 11.2652 9 11V7C9 6.73478 9.10536 6.48043 9.29289 6.29289C9.48043 6.10536 9.73478 6 10 6ZM18 22C18 24.1217 17.1571 26.1566 15.6569 27.6569C14.1566 29.1571 12.1217 30 10 30C7.87827 30 5.84344 29.1571 4.34315 27.6569C2.84285 26.1566 2 24.1217 2 22V10C2 7.87827 2.84285 5.84344 4.34315 4.34315C5.84344 2.84285 7.87827 2 10 2C12.1217 2 14.1566 2.84285 15.6569 4.34315C17.1571 5.84344 18 7.87827 18 10V22ZM10 0C7.34784 0 4.8043 1.05357 2.92893 2.92893C1.05357 4.8043 0 7.34784 0 10V22C0 24.6522 1.05357 27.1957 2.92893 29.0711C4.8043 30.9464 7.34784 32 10 32C12.6522 32 15.1957 30.9464 17.0711 29.0711C18.9464 27.1957 20 24.6522 20 22V10C20 7.34784 18.9464 4.8043 17.0711 2.92893C15.1957 1.05357 12.6522 0 10 0V0Z" fill="#828282"/>
</svg>
