<svg width="75" height="75" viewBox="0 0 75 75" fill="none" xmlns="http://www.w3.org/2000/svg">
<circle cx="37.5" cy="37.5" r="37.5" fill="#7000FF"/>
<path d="M58.0834 49.2639L40.2639 31.4444C40.7775 29.1182 40.6363 26.6952 39.8561 24.4444C39.0759 22.1936 37.6872 20.2031 35.8441 18.6938C34.001 17.1845 31.7757 16.2155 29.4152 15.8945C27.0548 15.5734 24.6515 15.9128 22.4722 16.875L20.6111 17.6944L28.0834 25.1666L24.1667 29.0972L16.6945 21.625L15.875 23.4722C14.9073 25.6513 14.5638 28.0563 14.8826 30.4192C15.2014 32.7821 16.1701 35.01 17.6807 36.8547C19.1914 38.6994 21.1845 40.0884 23.4382 40.8669C25.6918 41.6454 28.1173 41.7829 30.4445 41.2639L48.2639 59.0833C48.5219 59.3416 48.8283 59.5465 49.1655 59.6862C49.5027 59.826 49.8642 59.898 50.2292 59.898C50.5942 59.898 50.9557 59.826 51.2929 59.6862C51.6301 59.5465 51.9365 59.3416 52.1945 59.0833L58.0834 53.1944C58.3416 52.9364 58.5465 52.6301 58.6863 52.2929C58.8261 51.9556 58.8981 51.5942 58.8981 51.2291C58.8981 50.8641 58.8261 50.5026 58.6863 50.1654C58.5465 49.8282 58.3416 49.5218 58.0834 49.2639ZM50.2223 57.125L31.2778 38.1666L30.4861 38.3889C28.9786 38.8296 27.389 38.9126 25.8437 38.6312C24.2984 38.3498 22.8401 37.7117 21.5847 36.7678C20.3293 35.8239 19.3114 34.6001 18.612 33.1938C17.9125 31.7874 17.5508 30.2373 17.5556 28.6666C17.5539 27.9761 17.6237 27.2872 17.7639 26.6111L24.1667 33.0139L32.0278 25.1527L25.625 18.7639C27.3332 18.4053 29.1052 18.4956 30.7681 19.0261C32.431 19.5566 33.928 20.509 35.113 21.7906C36.298 23.0721 37.1306 24.639 37.5295 26.3382C37.9283 28.0375 37.8799 29.8111 37.3889 31.4861L37.1667 32.2777L56.125 51.2361L50.2223 57.125Z" fill="white"/>
<path d="M50.9561 51.9045C51.6612 51.1994 51.6613 50.0562 50.9561 49.3511C50.251 48.646 49.1078 48.646 48.4027 49.3511C47.6976 50.0562 47.6976 51.1994 48.4027 51.9045C49.1078 52.6096 50.251 52.6096 50.9561 51.9045Z" fill="white"/>
</svg>
