<svg width="75" height="75" viewBox="0 0 75 75" fill="none" xmlns="http://www.w3.org/2000/svg">
<circle cx="37.5" cy="37.5" r="37.5" fill="#7000FF"/>
<path d="M52.4375 40.875C49.2001 40.8781 46.0302 41.801 43.2971 43.5361C40.564 45.2713 38.3802 47.7473 37 50.6758C35.6198 47.7473 33.436 45.2713 30.7029 43.5361C27.9698 41.801 24.7999 40.8781 21.5625 40.875H12.625V42.5C12.625 51.9083 20.2792 59.5625 29.6875 59.5625H44.3125C53.7208 59.5625 61.375 51.9083 61.375 42.5V40.875H52.4375ZM29.6875 56.3125C22.6207 56.3125 16.7765 50.9785 15.9701 44.125H21.5625C28.6293 44.125 34.4735 49.459 35.2799 56.3125H29.6875ZM44.3125 56.3125H38.7201C39.5265 49.459 45.3707 44.125 52.4375 44.125H58.0299C57.2235 50.9785 51.3793 56.3125 44.3125 56.3125Z" fill="white"/>
<path d="M28.1871 36.6879C28.4944 38.5153 29.3662 40.2006 30.6802 41.5074L31.1562 41.9833H31.8292C33.6823 41.9884 35.4905 41.4132 37 40.3384C38.5094 41.4134 40.3176 41.9887 42.1707 41.9837H42.8438L43.3198 41.5078C44.6337 40.2011 45.5055 38.5157 45.8129 36.6883C47.6403 36.381 49.3256 35.5092 50.6323 34.1953L51.1082 33.7193V33.0462C51.1135 31.193 50.5383 29.3847 49.4633 27.875C50.5383 26.3656 51.1137 24.5574 51.1086 22.7043V22.0312L50.6327 21.5552C49.326 20.2413 47.6407 19.3695 45.8133 19.0622C45.5059 17.2348 44.6341 15.5494 43.3202 14.2427L42.8442 13.7668H42.1711C40.3179 13.7616 38.5096 14.3368 37 15.4117C35.4905 14.3367 33.6824 13.7613 31.8292 13.7664H31.1562L30.6802 14.2423C29.3662 15.549 28.4944 17.2343 28.1871 19.0618C26.3597 19.3691 24.6744 20.2409 23.3677 21.5548L22.8917 22.0308V22.7039C22.8865 24.5571 23.4617 26.3654 24.5366 27.875C23.4616 29.3845 22.8863 31.1927 22.8913 33.0458V33.7188L23.3673 34.1949C24.6741 35.5089 26.3595 36.3807 28.1871 36.6879V36.6879ZM27.8077 26.7261C26.9064 25.8302 26.3339 24.6565 26.1827 23.3948C27.1817 22.6093 28.4166 22.1839 29.6875 22.1875H31.3125V20.5625C31.3088 19.2918 31.7341 18.057 32.5195 17.058C33.7811 17.2092 34.9549 17.7818 35.8507 18.683L37 19.8313L38.149 18.6823C39.0448 17.7811 40.2185 17.2085 41.4802 17.0573C42.2658 18.0565 42.6912 19.2915 42.6875 20.5625V22.1875H44.3125C45.5832 22.1839 46.818 22.6091 47.817 23.3945C47.6658 24.6562 47.0932 25.8299 46.192 26.7258L45.0437 27.875L46.1928 29.0241C47.0941 29.9199 47.6666 31.0937 47.8178 32.3554C46.8186 33.141 45.5835 33.5663 44.3125 33.5625H42.6875V35.1875C42.6912 36.4583 42.2659 37.6931 41.4805 38.6921C40.2188 38.5408 39.0451 37.9683 38.1493 37.0671L37 35.9188L35.8509 37.0675C34.9551 37.9687 33.7813 38.5413 32.5197 38.6925C31.7341 37.6934 31.3088 36.4584 31.3125 35.1875V33.5625H29.6875C28.4167 33.5662 27.182 33.1409 26.183 32.3556C26.3342 31.0939 26.9067 29.9201 27.808 29.0243L28.9562 27.875L27.8077 26.7261Z" fill="white"/>
</svg>
