<svg width="165" height="294" viewBox="0 0 165 294" fill="none" xmlns="http://www.w3.org/2000/svg">
<path fill-rule="evenodd" clip-rule="evenodd" d="M14 0C6.26801 0 0 6.26801 0 14V280C0 287.732 6.26801 294 14 294H151C158.732 294 165 287.732 165 280V14C165 6.26801 158.732 0 151 0H14ZM16 5C9.92487 5 5 9.92487 5 16V278C5 284.075 9.92487 289 16 289H149C155.075 289 160 284.075 160 278V16C160 9.92487 155.075 5 149 5H16Z" fill="black"/>
<path fill-rule="evenodd" clip-rule="evenodd" d="M39.3532 16.3508C36.949 16.3508 34 8.9406 34 5.35075C34 2.62802 35.6964 2.88492 37.5649 3.16789C38.16 3.258 38.7725 3.35076 39.3532 3.35076L123.647 3.35076C124.198 3.35076 124.831 3.26718 125.478 3.18162C127.654 2.89401 130 2.58401 130 5.35076C130 8.94061 126.051 16.3508 123.647 16.3508C123.646 16.3508 123.645 16.3508 123.644 16.3508L39.3532 16.3508Z" fill="black"/>
</svg>
