<?xml version="1.0" encoding="UTF-8" standalone="no"?>
<!-- Created with Inkscape (http://www.inkscape.org/) -->

<svg
   version="1.1"
   id="svg2273"
   width="1282.6666"
   height="1282.6666"
   viewBox="0 0 1282.6666 1282.6666"
   sodipodi:docname="circuit.svg"
   inkscape:version="1.1.1 (3bf5ae0d25, 2021-09-20)"
   xmlns:inkscape="http://www.inkscape.org/namespaces/inkscape"
   xmlns:sodipodi="http://sodipodi.sourceforge.net/DTD/sodipodi-0.dtd"
   xmlns="http://www.w3.org/2000/svg"
   xmlns:svg="http://www.w3.org/2000/svg">
  <defs
     id="defs2277" />
  <sodipodi:namedview
     id="namedview2275"
     pagecolor="#ffffff"
     bordercolor="#666666"
     borderopacity="1.0"
     inkscape:pageshadow="2"
     inkscape:pageopacity="0.0"
     inkscape:pagecheckerboard="0"
     showgrid="false"
     inkscape:zoom="0.29041058"
     inkscape:cx="390.82598"
     inkscape:cy="711.06224"
     inkscape:window-width="1280"
     inkscape:window-height="961"
     inkscape:window-x="-8"
     inkscape:window-y="94"
     inkscape:window-maximized="1"
     inkscape:current-layer="g2279" />
  <g
     inkscape:groupmode="layer"
     inkscape:label="Image"
     id="g2279"
     transform="translate(-86.085016,-127.40583)">
    <path
       style="fill:#000000;stroke-width:1.33333"
       d="m 110.08502,1380.1624 c 0,-28.6074 -0.11464,-29.9466 -2.63189,-30.7455 -7.697208,-2.443 -10.902878,-16.6719 -5.34726,-23.7347 6.32547,-8.0416 20.24895,-7.6046 25.37126,0.7963 4.90094,8.0377 1.92801,20.604 -5.42676,22.9383 -2.51743,0.799 -2.63202,2.1376 -2.63202,30.7456 v 29.9101 h -4.66667 -4.66666 z m 10.74117,-37.8821 c 6.41326,-5.1932 2.14352,-16.2078 -6.28282,-16.2078 -3.97925,0 -9.79169,5.5404 -9.79169,9.3333 0,3.793 5.81244,9.3334 9.79169,9.3334 1.78542,0 4.61269,-1.1065 6.28282,-2.4589 z m 41.25883,31.446 v -36.3461 l -26,-25.9744 -26,-25.9743 v -75.0128 -75.0129 h -12.000004 -12 v -4.6666 -4.6667 h 15.066664 c 9.94075,0 15.61102,0.5443 16.66667,1.6 1.20738,1.2074 1.6,20.4333 1.6,78.35 v 76.7499 l 25.33333,24.4239 25.33334,24.4239 v 39.2262 39.2261 h -4 -4 z m 50.66667,-70.0952 v -106.4413 l -3.44709,-1.8449 c -3.62863,-1.9419 -6.7419,-6.7934 -7.2338,-11.2724 -0.69707,-6.3473 0.29379,-9.2129 4.71401,-13.6331 4.42663,-4.4267 5.10012,-4.6613 11.58748,-4.038 9.36592,0.8999 14.37939,6.2107 14.37939,15.2319 0,5.4819 -0.60664,6.7625 -5.33333,11.2589 l -5.33334,5.0735 v 106.0534 106.0534 h -4.66665 -4.66667 z m 8.63588,-113.7872 c 3.35392,-1.5281 5.64415,-6.4535 4.85358,-10.4381 -1.41607,-7.1372 -11.38584,-9.0949 -16.05935,-3.1535 -3.62902,4.6136 -3.48889,7.8826 0.50928,11.8808 3.66093,3.6609 5.7005,3.9871 10.69649,1.7108 z m 42.03078,106.5441 v -113.6846 l -18.65586,-18.6201 -18.65585,-18.6202 -7.90298,-0.029 c -6.50672,-0.024 -8.51131,-0.6001 -11.34617,-3.263 -8.82766,-8.2922 -5.92449,-23.0852 5.25459,-26.7746 6.52914,-2.1548 11.84561,-0.5808 16.69563,4.9431 3.70194,4.2163 4.11832,5.5098 3.7252,11.573 l -0.4426,6.8262 20.33068,20.3806 20.33069,20.3807 v 115.286 115.286 h -4.66667 -4.66666 z m -39.66032,-159.3155 c 5.46141,-6.108 1.45458,-16.3334 -6.40028,-16.3334 -3.98905,0 -9.93939,5.4436 -9.93939,9.093 0,1.4011 1.24354,4.1284 2.76344,6.0606 3.30283,4.1989 10.3307,4.8096 13.57623,1.1798 z m 91.66032,133.9935 v -139.0065 l -51.33334,-51.3204 -51.33332,-51.3203 v -95.51976 -95.5198 l -3.31476,-2.172 c -7.56049,-4.9538 -9.79429,-14.2553 -5.26488,-21.923 2.87662,-4.8697 6.99681,-6.8784 14.10904,-6.8784 4.36786,0 6.27307,0.8691 9.93726,4.5333 3.88433,3.8844 4.53333,5.441 4.53333,10.8732 0,5.6619 -0.57023,6.8822 -5.33333,11.4132 l -5.33334,5.0735 v 93.7266 93.72646 l 51.33334,51.3204 51.33333,51.3203 v 140.3399 140.3398 h -4.66666 -4.66667 z m -91.5,-442.33656 c 4.63373,-4.4441 2.04938,-13.2449 -4.49973,-15.3235 -6.87447,-2.1819 -13.51754,5.7846 -10.63224,12.7503 2.70914,6.5405 9.74751,7.7374 15.13197,2.5732 z m 142.16667,492.38276 v -88.9602 l 51.33333,-51.3957 51.33334,-51.3957 v -22.9774 -22.9774 h -66.41593 -66.41592 l -3.04796,4.1226 c -8.35458,11.3002 -24.61249,8.9041 -28.12632,-4.1453 -2.63573,-9.7884 4.775,-19.9824 14.51927,-19.9723 5.70988,0.01 12.89363,4.0254 14.12432,7.903 0.87051,2.7427 1.27589,2.7587 70.20671,2.7587 45.24191,0 70.22721,0.4795 71.91015,1.3802 2.4224,1.2965 2.57901,3.0579 2.57901,29.0065 v 27.6263 l -51.33333,51.3203 -51.33334,51.3204 v 87.6731 87.6732 h -4.66667 -4.66666 z M 325.8336,1086.0205 c 3.51467,-3.2744 3.86988,-10.0197 0.71143,-13.5097 -3.37643,-3.7309 -10.34663,-3.1839 -13.69657,1.0748 -3.62903,4.6136 -3.4889,7.8826 0.50929,11.8808 3.98425,3.9843 8.57516,4.1882 12.47585,0.5541 z m 92.25142,234.3788 v -89.6731 l 51.33333,-51.3204 51.33334,-51.3203 v -93.639 -93.63886 l -3.82022,-1.9755 c -5.03585,-2.6041 -8.68352,-10.3231 -7.60214,-16.0873 2.43882,-13.0001 18.29034,-17.7262 27.29733,-8.1387 6.25616,6.6593 4.39714,20.2437 -3.24699,23.7266 l -3.24373,1.4779 -0.3588,96.45816 -0.35879,96.4583 -51,51.0124 -51,51.0125 v 87.6602 87.6603 h -4.66666 -4.66667 z M 531.6467,931.86584 c 3.73092,-3.3764 3.18393,-10.3466 -1.07483,-13.6966 -1.93222,-1.5198 -4.6595,-2.7634 -6.0606,-2.7634 -3.64933,0 -9.09292,5.9504 -9.09292,9.9394 0,7.3745 10.58511,11.6277 16.22835,6.5206 z m -62.89501,388.96836 v -89.2384 l 51.33333,-51.3598 51.33334,-51.3598 v -93.4553 -93.45516 l -5.33334,-5.0735 c -4.70677,-4.4775 -5.33333,-5.7906 -5.33333,-11.1776 0,-11.7077 10.73628,-19.06 21.52752,-14.7422 6.21284,2.4859 9.13915,7.3658 9.13915,15.2403 0,4.8059 -0.76122,6.3301 -5.33334,10.6795 l -5.33333,5.0735 v 95.05986 95.0599 l -51.33334,51.3203 -51.33333,51.3204 v 87.6731 87.6732 h -4.66667 -4.66666 z M 582.5691,932.06464 c 7.52071,-7.5207 -0.0331,-19.3783 -9.77429,-15.3433 -6.02116,2.494 -7.54359,9.9916 -3.04947,15.0178 2.57022,2.8746 10.084,3.0652 12.82376,0.3255 z m -61.81741,397.95446 v -80.0534 l -5.2319,-4.977 c -6.30093,-5.9939 -7.73262,-10.6661 -5.25953,-17.1639 4.12704,-10.8435 17.37691,-14.1489 25.23132,-6.2945 7.43418,7.4342 6.42907,19.9919 -1.95948,24.4813 l -3.44708,1.8448 v 81.1081 81.108 h -4.66667 -4.66666 z m 10.66666,-90.6133 c 3.49055,-3.4905 3.39036,-9.0578 -0.23241,-12.914 -3.74877,-3.9904 -8.38703,-3.9211 -12.49485,0.1868 -4.04359,4.0435 -4.17175,8.2651 -0.37366,12.308 3.59535,3.827 9.50403,4.0161 13.10092,0.4192 z m 40.00001,64.6133 v -106.0534 l -5.33334,-5.0735 c -4.72669,-4.4964 -5.33333,-5.777 -5.33333,-11.2589 0,-9.0212 5.01347,-14.332 14.3794,-15.2319 6.48736,-0.6233 7.16085,-0.3887 11.58748,4.038 3.8674,3.8674 4.69979,5.6797 4.69979,10.2326 0,6.8124 -2.66947,12.2378 -7.21959,14.6729 l -3.44708,1.8449 v 106.4413 106.4414 h -4.66667 -4.66666 z m 10.46209,-114.9466 c 4.25259,-3.5984 4.83711,-8.5029 1.51649,-12.7244 -4.74589,-6.0334 -14.70545,-4.146 -16.13472,3.0577 -1.72481,8.6932 8.09476,15.1867 14.61823,9.6667 z m 41.53791,79.9935 v -141.0065 l 51.33333,-51.3204 51.33334,-51.3203 V 899.41504 773.41124 l -122.18461,-122.19 C 482.31373,529.62914 481.69558,529.03704 477.58189,530.21684 c -5.60919,1.6086 -11.89539,-0.6484 -16.26334,-5.8394 -3.02898,-3.5998 -3.43304,-5.0929 -2.89461,-10.6964 0.84757,-8.8209 5.11543,-13.0887 13.93628,-13.9363 5.60352,-0.5384 7.09663,-0.1344 10.69637,2.8946 5.19252,4.3693 7.44816,10.6539 5.83836,16.2669 -1.17293,4.0898 -0.66936,4.6546 43.67564,48.9852 l 44.86226,44.8477 h 22.99276 22.99275 l -0.008,-143.6666 -0.008,-143.6667 -3.98055,-2.265 c -9.31473,-5.3002 -10.26105,-17.6385 -1.91488,-24.9665 8.00571,-7.0291 19.45484,-4.6402 24.03669,5.0153 3.32478,7.0064 1.76364,13.2546 -4.72577,18.9142 l -5.38687,4.6979 -0.33921,147.3021 -0.34008,147.302 -21.95844,0.3678 -21.95844,0.3677 46.61796,46.6323 46.61798,46.6322 h 23.00044 23.00044 l 0.34004,-127.6485 c 0.3301,-123.9248 0.41346,-127.6626 2.8576,-128.1332 1.79081,-0.3449 8.40066,5.3891 22.89712,19.8629 l 20.37953,20.3477 8.21297,0.119 c 7.52251,0.1088 8.54,0.4849 12.1029,4.4732 12.36104,13.8369 -5.29958,33.5136 -20.97526,23.3697 -3.96509,-2.5658 -6.1878,-8.6105 -5.56553,-15.1355 0.51807,-5.4324 0.34247,-5.6823 -15.02083,-21.376 -8.54976,-8.7336 -15.91769,-15.8793 -16.37321,-15.8793 -0.45551,0 -0.98128,55.95 -1.1684,124.3333 l -0.3402,124.3334 -21.68616,0.6666 -21.68615,0.6667 22.01948,21.9848 22.0195,21.9849 v 130.6883 130.68826 l -51.33334,51.3204 -51.33333,51.3203 v 138.3399 138.3398 h -4 -4 z M 480.14562,521.46644 c 3.62045,-3.6204 4.0354,-6.1203 1.7398,-10.4816 -2.04636,-3.8877 -3.72128,-4.8676 -8.36208,-4.8919 -5.21003,-0.027 -8.77635,3.4446 -8.75124,8.5195 0.0236,4.7585 0.93219,6.4274 4.64625,8.5335 4.14652,2.3513 7.16979,1.878 10.72727,-1.6795 z m 307.02133,0.5541 c 6.43427,-5.9944 2.77784,-15.948 -5.85847,-15.948 -3.15489,0 -5.14941,0.9994 -7.20204,3.6089 -6.91632,8.7927 4.89225,19.949 13.06051,12.3391 z M 633.66576,316.50674 c 6.12134,-5.7507 2.18548,-15.7676 -6.19546,-15.7676 -8.58662,0 -12.52613,10.6692 -5.87213,15.9032 4.50408,3.543 8.19612,3.5015 12.06759,-0.1356 z m 40.41927,952.60546 V 1128.152 l 51.33333,-51.3958 51.33333,-51.3956 V 923.36704 821.37354 l 20.64373,-20.6115 20.64373,-20.6115 -0.80848,-6.8788 c -0.75939,-6.4612 -0.53532,-7.1769 3.69041,-11.788 7.79887,-8.51 18.35722,-7.7411 24.79059,1.8054 3.72161,5.5225 3.84636,10.1112 0.42733,15.7186 -3.65218,5.9898 -9.78101,8.8892 -16.51442,7.8125 l -5.39154,-0.8622 -19.074,19.04 -19.07401,19.04 v 102.6904 102.69036 l -51.33334,51.3203 -51.33333,51.3204 v 139.0065 139.0065 h -4.66667 -4.66666 z M 838.9991,777.84014 c 3.87368,-3.6392 3.94792,-8.6782 0.18685,-12.6817 -5.77219,-6.1442 -15.76759,-2.1839 -15.76759,6.2474 0,8.3113 9.43524,12.2076 15.58074,6.4343 z M 726.08503,1381.2537 v -28.8189 l -5.66667,-5.0287 c -5.26723,-4.6743 -5.66667,-5.5076 -5.66667,-11.8222 0,-5.8948 0.5766,-7.3701 4.35898,-11.1524 3.75168,-3.7517 5.28064,-4.359 10.97436,-4.359 5.69372,0 7.22268,0.6073 10.97436,4.359 3.78237,3.7823 4.35897,5.2576 4.35897,11.1524 0,6.3146 -0.39944,7.1479 -5.66667,11.8222 l -5.66666,5.0287 v 28.8189 28.8188 h -4 -4 z m 10.66666,-39.1812 c 3.49055,-3.4905 3.39036,-9.0578 -0.23241,-12.9141 -3.63913,-3.8736 -8.67817,-3.9479 -12.68165,-0.1868 -6.1442,5.7722 -2.18386,15.7676 6.2474,15.7676 2.22222,0 5.18518,-1.1852 6.66666,-2.6667 z m 40,64.6133 c 0,-2.2168 -1.84249,-5.1395 -5.33333,-8.4603 -4.76311,-4.531 -5.33333,-5.7513 -5.33333,-11.4132 0,-5.4322 0.649,-6.9888 4.53333,-10.8731 3.86951,-3.8695 5.45099,-4.5334 10.8,-4.5334 5.34901,0 6.93049,0.6639 10.8,4.5334 3.88434,3.8843 4.53334,5.4409 4.53334,10.8731 0,5.6619 -0.57023,6.8822 -5.33334,11.4132 -3.49084,3.3208 -5.33333,6.2435 -5.33333,8.4603 0,2.9816 -0.55816,3.3867 -4.66667,3.3867 -4.10851,0 -4.66667,-0.4051 -4.66667,-3.3867 z m 9.1324,-12.0893 c 6.42171,-4.4979 5.86749,-13.6245 -1.0001,-16.4692 -10.82094,-4.4822 -18.18872,11.9479 -7.64686,17.0524 3.99398,1.9339 5.16614,1.8549 8.64696,-0.5832 z m 42.86761,5.1362 v -10.3399 l -51.33334,-51.3203 -51.33333,-51.3203 v -79.3464 -79.3463 l 51.33333,-51.3204 51.33334,-51.3203 v -93.63886 -93.6389 l -3.97743,-2.0569 c -9.86212,-5.0999 -10.46048,-20.0178 -1.06685,-26.5974 4.28257,-2.9996 13.8155,-2.6627 18.47166,0.6527 8.52299,6.0689 8.01839,20.2633 -0.90756,25.5297 l -4.51982,2.6668 v 96.1619 96.16186 l -51.33334,51.3957 -51.33333,51.3957 v 73.9838 73.9839 l 51.33333,51.3204 51.33334,51.3203 v 13.0065 13.0065 h -4 -4 z m 11,-571.25706 c 3.26904,-3.7807 2.90429,-8.6201 -0.9394,-12.4637 -3.99818,-3.9982 -7.26724,-4.1384 -11.88079,-0.5093 -5.9656,4.6925 -4.2382,13.6087 3.15352,16.2773 3.02144,1.0908 7.05997,-0.2897 9.66667,-3.3043 z M 879.41836,1398.23 v -11.8425 l -51.33333,-50.3236 -51.33334,-50.3236 v -70.5006 c 0,-59.8044 -0.28545,-70.5005 -1.88148,-70.5005 -1.0348,0 -3.4348,-1.8461 -5.33333,-4.1023 -3.99089,-4.743 -4.62076,-12.4364 -1.51059,-18.4508 1.9428,-3.757 9.13371,-8.1136 13.39207,-8.1136 4.25836,0 11.44927,4.3566 13.39207,8.1136 4.2202,8.1609 1.02653,19.6376 -6.09352,21.8974 -2.57566,0.8175 -2.63188,2.3106 -2.63188,69.8951 v 69.0597 l 11.66667,11.1306 c 6.41666,6.1218 29.51666,28.5165 51.33333,49.766 l 39.66667,38.6354 v 13.7511 13.7511 h -4.66667 -4.66667 z m -91.74265,-261.1575 c 3.31965,-3.8652 3.8264,-6.9705 1.78253,-10.9229 -3.02637,-5.8523 -8.98845,-7.1784 -13.83531,-3.0771 -4.25258,3.5984 -4.8371,8.5029 -1.51649,12.7244 3.37975,4.2966 10.40727,4.9573 13.56927,1.2756 z m 142.40932,184.0397 v -88.9602 l 51.33334,-51.3957 51.33333,-51.3957 V 1028.0725 926.78444 l -51.33333,-51.3957 -51.33334,-51.3957 v -129.2539 -129.2538 l 51.33334,-51.3957 51.33333,-51.3957 V 295.04984 127.40583 h 4.6667 4.6666 v 169.00651 169.0065 l -51.3333,51.3203 -51.33333,51.3204 v 126.013 126.013 l 51.33333,51.3203 51.3333,51.3204 v 104.67956 104.6797 l -51.3333,51.3203 -51.33333,51.3204 v 87.6731 87.6732 h -4.66667 -4.66667 z m 51.99158,7.9603 -0.008,-81 -4.04698,-2.3031 c -5.73936,-3.2663 -8.64558,-10.7379 -6.70112,-17.2279 5.17523,-17.2734 30.78009,-13.608 30.75999,4.4034 -0.01,5.3981 -4.12057,12.5646 -7.90303,13.7651 -2.70482,0.8584 -2.75866,1.6216 -2.75866,39.1029 l -4.4e-4,38.2273 20.66663,-20.6344 20.6667,-20.6344 v -42.4029 -42.4028 l -5.3333,-5.0735 c -4.3494,-4.1375 -5.3334,-5.9847 -5.3334,-10.0128 0,-9.9696 6.7117,-16.8069 16.4982,-16.8069 5.9828,0 12.2989,5.2339 14.2748,11.829 1.9341,6.4553 -0.8401,13.5451 -6.6408,16.9717 l -4.1322,2.4409 v 44.6347 44.6346 l -25.3333,25.4548 -25.33333,25.4548 v 36.2898 36.2897 h -4.66667 -4.66667 l -0.008,-81 z m 10.37841,-89.0756 c 6.35285,-4.4497 2.1348,-16.5911 -5.76392,-16.5911 -3.98905,0 -9.9394,5.4436 -9.9394,9.0929 0,1.4011 1.24355,4.1284 2.76344,6.0606 3.18001,4.0428 8.39353,4.622 12.93988,1.4376 z m 51.69058,-51.8638 c 6.2042,-6.2042 2.4499,-15.3939 -6.2889,-15.3939 -8.9889,0 -12.6332,10.3645 -5.5918,15.9032 4.6135,3.629 7.8826,3.4889 11.8807,-0.5093 z m -11.3939,183.8972 v -38.0421 l 26,-25.8989 26,-25.8988 v -119.1416 -119.1416 l -4.1226,-3.048 c -11.3002,-8.3545 -8.904,-24.6125 4.1453,-28.1263 9.7884,-2.6357 19.9824,4.775 19.9723,14.5193 -0.01,5.7099 -4.0254,12.8936 -7.903,14.1243 l -2.7587,0.8756 v 115.3175 115.3176 l 20.6667,-20.6667 20.6667,-20.6666 v -101.092 -101.0919 l -18.6861,-18.6488 -18.686,-18.64876 h -7.0385 c -8.5989,0 -13.695,-2.9983 -16.4979,-9.7063 -3.888,-9.3054 2.3529,-19.847 12.5604,-21.2161 10.6493,-1.4284 18.5841,6.6571 17.3426,17.6719 l -0.6358,5.6409 20.4873,20.45526 20.4873,20.4553 v 104.6894 104.6892 l -51.3333,51.3204 -51.3334,51.3203 v 36.3399 36.3398 h -4.6666 -4.6667 z m 62.895,-337.4978 c 3.7309,-3.3764 3.1839,-10.3466 -1.0748,-13.6966 -1.9322,-1.5199 -4.6595,-2.7634 -6.0606,-2.7634 -3.6493,0 -9.0929,5.9503 -9.0929,9.9394 0,7.3745 10.5851,11.6277 16.2283,6.5206 z m -0.4798,-51.17856 c 5.8916,-5.4888 1.9592,-15.9481 -5.9959,-15.9481 -4.5145,0 -9.7526,4.8123 -9.7526,8.9597 0,4.0651 5.6308,9.707 9.6879,9.707 1.7284,0 4.4557,-1.2234 6.0606,-2.7186 z m -10.4152,388.37876 v -38.3399 l 51.3333,-51.3203 51.3334,-51.3204 v -100.4309 -100.4309 l -51.3334,-51.46986 -51.3333,-51.4698 v -24.4391 -24.439 h -15.786 c -15.5483,0 -15.8088,0.05 -17.3061,3.3364 -1.8195,3.9934 -9.0141,8.6517 -13.3731,8.6586 -4.9294,0.01 -11.4408,-3.6806 -13.9267,-7.889 -6.8563,-11.6067 2.2605,-25.4386 15.6089,-23.6816 4.2542,0.5599 6.4813,1.9082 10.1527,6.1464 l 4.703,5.4292 h 18.821 c 15.9323,0 18.9452,0.3237 19.6303,2.109 0.4451,1.16 0.8093,13.313 0.8093,27.0066 v 24.8975 l 50.6667,50.6535 50.6667,50.65346 v 105.3466 105.3465 l -50.6667,50.6535 -50.6667,50.6535 v 36.3399 36.3399 h -4.6666 -4.6667 z m -40.6061,-491.59956 c 3.9982,-3.9982 4.1384,-7.2673 0.5093,-11.8808 -5.3315,-6.778 -15.9032,-2.909 -15.9032,5.8202 0,8.5141 9.2849,12.1696 15.3939,6.0606 z m 91.2728,491.64576 v -38.2936 l 51.3333,-51.3957 51.3333,-51.3957 v -100.6214 -100.6214 l -51.3333,-51.39566 -51.3333,-51.3957 v -49.627 -49.6269 h -75.0667 c -56.6074,0 -75.46012,-0.3935 -76.66667,-1.6 -1.2171,-1.2171 -1.6,-26.5051 -1.6,-105.6732 v -104.0731 l 51.33337,-51.3204 51.3333,-51.3203 v -68.0891 -68.0891 l -3.978,-2.941 c -5.5324,-4.0903 -8.4487,-10.2014 -7.4383,-15.5872 2.497,-13.3099 18.0818,-17.9094 27.3295,-8.0656 6.2313,6.6328 4.3339,20.2144 -3.3107,23.6975 l -3.2692,1.4895 v 70.0796 70.0796 l -51.3333,51.3957 -51.33333,51.3957 v 99.644 99.6441 h 75.06663 c 56.6074,0 75.4601,0.3934 76.6667,1.6 1.1883,1.1883 1.6,14.6468 1.6,52.3107 v 50.7107 l 51.3333,51.3957 51.3334,51.39566 v 102.6401 102.6401 l 25.3333,25.307 25.3333,25.307 v 44.7257 44.7257 l 4.0069,2.3669 c 7.3547,4.3445 9.9235,13.2742 6.0007,20.86 -2.9184,5.6436 -7.1085,8.0147 -14.1632,8.0147 -4.997,0 -7.0277,-0.7461 -10.2668,-3.7719 -7.6266,-7.1243 -6.4613,-19.8591 2.2903,-25.0288 l 4.1321,-2.4409 v -42.0598 -42.0597 l -23.6768,-23.6494 -23.6768,-23.6494 -48.9898,49.0033 -48.9899,49.0033 v 36.3266 36.3267 h -4.6667 -4.6666 z m 165.6666,21.2626 c 3.1977,-2.808 3.005,-9.9479 -0.3505,-12.9846 -3.8018,-3.4405 -10.4891,-3.14 -13.5239,0.6078 -7.7761,9.603 4.5308,20.5815 13.8744,12.3768 z M 1095.6467,367.86584 c 3.7309,-3.3764 3.1839,-10.3466 -1.0748,-13.6966 -1.9322,-1.5199 -4.6595,-2.7634 -6.0606,-2.7634 -3.6493,0 -9.0929,5.9503 -9.0929,9.9394 0,7.3745 10.5851,11.6277 16.2283,6.5206 z m 86.9459,1031.66056 c -3.8321,-2.3367 -7.1742,-8.4479 -7.1742,-13.118 0,-3.965 4.4849,-11.1849 8.1135,-13.0613 8.7893,-4.5451 18.9856,-1.2208 22.5344,7.3469 l 1.6756,4.0452 h 15.1716 15.1715 v -44.9124 -44.9124 l -15.981,16.1982 -15.981,16.1982 0.809,5.9021 c 2.0921,15.2633 -16.2885,24.2269 -26.4857,12.9162 -4.7826,-5.305 -5.7615,-9.7467 -3.4729,-15.7597 2.7773,-7.297 9.5334,-11.4101 17.0805,-10.3985 l 5.9689,0.8001 21.0365,-21.0057 c 17.9945,-17.9681 21.3732,-20.7933 23.3645,-19.5373 2.1538,1.3587 2.3279,5.5949 2.3279,56.6565 v 55.188 l -19.7905,0.3697 -19.7905,0.3697 -4.3669,4.6303 c -3.6957,3.9186 -5.265,4.6295 -10.2095,4.6253 -3.3879,0 -7.5901,-1.0705 -10.0017,-2.5411 z m 15.8258,-6.4849 c 3.1976,-2.808 3.0049,-9.9479 -0.3506,-12.9846 -3.8018,-3.4405 -10.4891,-3.14 -13.5239,0.6078 -7.7761,9.603 4.5309,20.5815 13.8745,12.3768 z m -0.3334,-50.969 c 5.6053,-5.6053 1.5465,-16 -6.2474,-16 -4.5951,0 -9.7526,4.837 -9.7526,9.1465 0,7.924 10.4524,12.4012 16,6.8535 z m 136.5334,55.4667 c -3.8844,-3.8844 -4.5334,-5.441 -4.5334,-10.8732 0,-5.6619 0.5703,-6.8822 5.3334,-11.4132 l 5.3333,-5.0735 v -86.1068 -86.1068 l -5.3333,-5.0735 c -4.7631,-4.531 -5.3334,-5.7513 -5.3334,-11.4133 0,-5.4321 0.649,-6.9887 4.5334,-10.8731 3.8695,-3.8695 5.451,-4.5333 10.8,-4.5333 5.349,0 6.9305,0.6638 10.8,4.5333 3.6989,3.699 4.5333,5.5517 4.5333,10.0662 0,6.8124 -2.6695,12.2378 -7.2196,14.6729 l -3.4471,1.8449 v 86.4947 86.4948 l 5.3334,5.0735 c 4.7631,4.531 5.3333,5.7513 5.3333,11.4132 0,5.4322 -0.649,6.9888 -4.5333,10.8732 -3.8695,3.8695 -5.451,4.5333 -10.8,4.5333 -5.349,0 -6.9305,-0.6638 -10.8,-4.5333 z m 14.6471,-2.3063 c 7.2812,-3.3176 7.3319,-11.9125 0.098,-16.6522 -2.7367,-1.7932 -3.9506,-1.8867 -7.172,-0.5523 -7.5721,3.1364 -8.1579,13.6633 -0.9544,17.1513 3.7498,1.8157 4.1542,1.8184 8.0284,0.053 z m 0.7243,-205.1094 c 1.3179,-0.7054 3.1671,-3.1436 4.1093,-5.4183 1.5156,-3.6591 1.4049,-4.5488 -0.961,-7.7176 -2.0791,-2.7847 -3.797,-3.5818 -7.7197,-3.5818 -3.9227,0 -5.6407,0.7971 -7.7197,3.5818 -2.3804,3.1882 -2.4828,4.0438 -0.9319,7.7881 2.3599,5.6972 8.1754,8.0491 13.223,5.3478 z m -474.7076,158.2336 c -5.40184,-3.6351 -8.27172,-10.88 -6.60789,-16.6815 1.07636,-3.753 0.24485,-4.7994 -19.39903,-24.4126 l -20.52358,-20.4916 v -95.3131 -95.3131 l -5.42915,-4.703 c -4.23819,-3.6714 -5.58649,-5.8985 -6.14645,-10.1527 -1.75698,-13.3484 12.07494,-22.4652 23.68166,-15.6089 4.20832,2.4859 7.8968,8.9973 7.88895,13.9267 -0.007,4.359 -4.66517,11.5535 -8.65861,13.3731 l -3.3364,1.5201 v 93.4694 93.4693 l 19.78393,19.7509 c 19.53533,19.5028 19.84365,19.7398 24.53704,18.8593 6.10251,-1.1449 13.75044,2.3378 16.40443,7.47 7.75998,15.0062 -8.36451,30.1446 -22.1949,20.8377 z m 14.50615,-5.6935 c 2.19791,-1.5395 2.96335,-3.4142 2.96335,-7.2578 0,-8.9019 -9.0067,-12.4478 -15.39394,-6.0606 -3.99818,3.9982 -4.13832,7.2673 -0.50929,11.8808 3.18001,4.0428 8.39353,4.622 12.93988,1.4376 z M 838.8123,1085.4664 c 6.35164,-6.3516 2.44448,-15.3939 -6.65167,-15.3939 -8.50431,0 -11.98587,10.5883 -5.22912,15.9032 4.61355,3.629 7.88261,3.4889 11.88079,-0.5093 z m -681.77155,211.8585 c -9.39364,-6.5796 -8.79527,-21.4975 1.06684,-26.5974 l 3.97743,-2.0568 v -86.5417 -86.5416 l -4.02012,-2.8626 c -13.61638,-9.6957 -8.20741,-29.319 8.08152,-29.319 7.82752,0 15.9386,7.7578 15.9386,15.2443 0,4.5433 -4.04641,11.5723 -7.93616,13.7859 l -4.04698,2.3031 -0.008,86.9658 -0.008,86.9658 3.82021,1.9755 c 8.74994,4.5248 10.2401,17.5711 2.85097,24.9602 -3.13341,3.1334 -4.93394,3.7994 -10.27194,3.7994 -3.70732,0 -7.74183,-0.889 -9.44351,-2.0809 z m 15.10488,-6.5251 c 6.09311,-6.0931 2.67064,-15.4378 -5.74168,-15.677 -9.23337,-0.2625 -13.32748,10.5319 -6.13912,16.1863 4.61355,3.629 7.88262,3.4889 11.8808,-0.5093 z m 0,-205.3334 c 6.10901,-6.109 2.45353,-15.3939 -6.06061,-15.3939 -8.72917,0 -12.59814,10.5717 -5.82019,15.9032 4.61355,3.629 7.88262,3.4889 11.8808,-0.5093 z m 703.63197,212.3237 c -1.63576,-0.7894 -4.1744,-3.9148 -5.64142,-6.9453 -3.49963,-7.2292 -1.87335,-13.8713 4.67573,-19.0969 l 4.60637,-3.6754 4e-5,-172.5726 4e-5,-172.57256 20.49763,-20.7607 c 20.19412,-20.4534 20.48806,-20.8353 19.85064,-25.7907 -0.87227,-6.7813 1.68246,-12.3596 7.23078,-15.7886 12.68252,-7.8382 28.36734,5.4591 22.63158,19.1867 -2.92324,6.9963 -9.27058,10.6472 -16.84485,9.6888 l -5.96755,-0.7551 -19.03245,18.9985 -19.03244,18.9984 v 170.40396 170.404 l 5.33333,5.0735 c 4.76311,4.531 5.33333,5.7513 5.33333,11.4133 0,5.4322 -0.649,6.9888 -4.53333,10.8731 -3.81455,3.8145 -5.45295,4.519 -10.33333,4.4431 -3.19,-0.05 -7.13835,-0.7361 -8.7741,-1.5255 z m 12.17832,-5.2347 c 6.9268,-3.1561 6.68919,-13.1297 -0.39697,-16.6626 -10.11827,-5.0445 -18.25587,10.766 -8.3198,16.1645 4.3352,2.3554 4.60641,2.3709 8.71677,0.4981 z m 53.52305,-412.42226 c 4.04358,-4.0436 4.17174,-8.2651 0.37365,-12.308 -5.77219,-6.1442 -15.76759,-2.1839 -15.76759,6.2474 0,8.5141 9.28492,12.1696 15.39394,6.0606 z m 342.69373,364.50416 c -8.2805,-7.2704 -7.6653,-17.8585 1.4411,-24.8042 l 4.4712,-3.4104 V 1098.5809 980.73914 h -24.4 c -17.2,0 -24.8721,-0.4721 -26,-1.6 -1.2033,-1.2033 -1.6,-18.7378 -1.6,-70.72 v -69.1201 l -5.3333,-5.0735 c -4.7631,-4.531 -5.3333,-5.7513 -5.3333,-11.4132 0,-5.4322 0.649,-6.9888 4.5333,-10.8732 3.8695,-3.8695 5.451,-4.5333 10.8,-4.5333 5.349,0 6.9305,0.6638 10.8,4.5333 3.8843,3.8844 4.5333,5.441 4.5333,10.8732 0,5.6619 -0.5702,6.8822 -5.3333,11.4132 l -5.3333,5.0735 v 11.7129 11.713 l 46.6666,-46.6524 46.6667,-46.6524 v -99.0072 -99.0071 h -46.6667 -46.6666 v 98.0339 98.0338 l 21,-0.3672 21,-0.3672 0.2913,-66.6666 0.2913,-66.6667 -4.2393,-2.6667 c -9.3134,-5.8584 -9.6538,-20.5408 -0.604,-26.0588 10.9522,-6.678 24.9389,0.6136 24.9223,12.9926 -0.01,4.8786 -4.4497,12.0564 -8.647,13.9688 l -3.3248,1.5149 -0.3449,70.7913 -0.3449,70.7912 -28.5712,0.3606 c -21.967,0.2772 -28.8197,-0.031 -29.6463,-1.3334 -0.5912,-0.9316 -1.0842,-93.7968 -1.0955,-206.367 l -0.02,-204.6732 -51.3333,-51.3203 -51.3333,-51.3204 v -66.3398 -66.33981 h 4.6666 4.6667 v 64.31071 64.3107 l 51.3333,51.3957 51.3334,51.3957 v 101.6269 101.627 h 50.524 c 44.8413,0 50.615,0.2372 51.3333,2.109 0.4451,1.16 0.8093,48.7129 0.8093,105.6732 v 103.5641 l -51.3333,51.3203 -51.3333,51.3204 v 47.6731 47.6732 h 23.8367 c 18.6197,0 24.1704,0.402 25.3611,1.8367 1.1194,1.3488 1.5133,33.83096 1.4829,122.28516 l -0.041,120.4486 5.4064,4.7148 c 6.5097,5.6769 8.0738,11.9166 4.7453,18.9309 -4.5819,9.6555 -16.031,12.0444 -24.0367,5.0153 z m 16.579,-5.2315 c 3.4905,-3.4905 3.3904,-9.0578 -0.2324,-12.914 -3.6391,-3.8737 -8.6782,-3.948 -12.6817,-0.1869 -6.1442,5.7722 -2.1838,15.7676 6.2474,15.7676 2.2223,0 5.1852,-1.1852 6.6667,-2.6667 z m -54.1529,-408.17296 c 7.5664,-3.4474 7.2688,-13.9367 -0.4865,-17.149 -3.7121,-1.5376 -4.5951,-1.4414 -7.6414,0.833 -6.6432,4.9599 -6.1883,12.4859 0.9737,16.1097 4.0134,2.0307 3.2017,2.0073 7.1542,0.2063 z m 53.3064,-206.5904 c 7.8038,-6.1385 2.2792,-17.0179 -8.1535,-16.0568 -2.9638,0.273 -7,5.3937 -7,8.8808 0,3.9891 5.4436,9.9394 9.0929,9.9394 1.4011,0 4.1284,-1.2435 6.0606,-2.7634 z M 365.41835,1196.2185 c -5.75232,-2.5622 -8.79179,-6.5203 -9.59279,-12.4922 -0.84761,-6.3194 2.26042,-13.1039 6.99026,-15.259 3.24566,-1.4788 3.2692,-1.6252 3.2692,-20.3422 0,-12.8854 0.50642,-19.359 1.6,-20.4526 1.09173,-1.0918 7.5509,-1.6027 20.33333,-1.6084 l 18.73333,-0.01 2.30313,-4.047 c 3.2596,-5.7277 10.73945,-8.6451 17.20118,-6.7092 18.28015,5.4765 14.18823,30.7726 -4.97788,30.7726 -4.02808,0 -5.87532,-0.9839 -10.0128,-5.3333 l -5.07348,-5.3334 H 390.8051 375.41835 l 4e-5,15 4e-5,15 4.55172,3.6319 c 5.89931,4.707 8.20555,11.3667 6.12227,17.679 -2.70903,8.2085 -12.97972,12.9289 -20.67407,9.5018 z m 12.0606,-8.0854 c 3.98427,-3.9843 4.18817,-8.5752 0.55412,-12.4759 -3.27441,-3.5146 -10.01968,-3.8698 -13.50973,-0.7114 -3.73092,3.3764 -3.18394,10.3466 1.07482,13.6966 4.61355,3.629 7.88262,3.4889 11.88079,-0.5093 z m 51.27274,-51.3939 c 3.49054,-3.4906 3.39036,-9.0578 -0.23242,-12.9141 -3.74877,-3.9904 -8.38702,-3.9211 -12.49485,0.1868 -3.99819,3.9982 -4.13832,7.2672 -0.50929,11.8808 3.38101,4.2982 9.39986,4.6832 13.23656,0.8465 z m 502.71358,46.7543 c -0.9141,-1.708 -1.38024,-34.4191 -1.38024,-96.8587 v -94.27966 l -4.76156,-4.1413 c -11.54363,-10.04 -4.78608,-27.4747 10.64895,-27.4747 6.19301,0 13.49064,6.2666 14.67989,12.6059 1.155,6.1566 -2.05712,13.5146 -7.1701,16.4244 l -4.04698,2.3031 -0.008,89.31766 -0.009,89.3177 21.33333,-21.3021 21.33333,-21.3021 v -99.0156 -99.01556 H 966.3102 c -15.15613,0 -15.83991,0.1218 -17.43781,3.1075 -5.4446,10.1734 -22.17886,9.7605 -27.57804,-0.6804 -2.79943,-5.4135 -1.76834,-13.6174 2.2489,-17.8935 3.46274,-3.686 10.42978,-5.9771 14.84271,-4.8811 4.47173,1.1106 10.08847,5.3738 11.04327,8.3821 0.78016,2.4581 2.08964,2.632 19.81218,2.632 12.98196,0 19.48226,0.5055 20.57682,1.6 1.21709,1.2171 1.6,26.4873 1.6,105.59246 v 103.9925 l -26.95712,27.0742 c -14.82643,14.8908 -28.00531,27.0742 -29.28643,27.0742 -1.28111,0 -2.95041,-1.1606 -3.70955,-2.579 z m 10.0137,-200.69376 c 4.04358,-4.0435 4.17174,-8.2651 0.37365,-12.308 -5.61288,-5.9746 -15.76759,-2.2211 -15.76759,5.8282 0,4.5144 4.81228,9.7526 8.9597,9.7526 1.73884,0 4.63424,-1.4728 6.43424,-3.2728 z m 0.60606,-51.3939 c 3.60364,-3.6036 3.35795,-8.7633 -0.60606,-12.7273 -3.99818,-3.9981 -7.26724,-4.1383 -11.88079,-0.5093 -4.12404,3.244 -4.74691,9.6633 -1.30649,13.465 2.9855,3.2989 10.38861,3.1763 13.79334,-0.2284 z M 259.97876,1143.5585 c -5.192,-3.166 -7.81995,-9.3303 -6.75348,-15.8414 l 0.81537,-4.978 -43.6369,-43.6666 c -24.0003,-24.0167 -44.16053,-43.6667 -44.80052,-43.6667 -0.63998,0 -9.09466,7.95 -18.78817,17.6667 l -17.62457,17.6666 0.59137,5.7093 c 1.10819,10.6987 -4.59194,17.8495 -14.43415,18.1076 -9.81874,0.2575 -15.92936,-6.0323 -15.92936,-16.3963 0,-4.059 0.95458,-6.4467 3.89097,-9.7329 3.57929,-4.0055 4.54147,-4.3566 12.01144,-4.383 l 8.12045,-0.029 19.32191,-19.2874 19.3219,-19.2874 V 829.30344 633.16694 l -3.3364,-1.5202 c -4.2074,-1.917 -8.6521,-9.0903 -8.65862,-13.9741 -0.0158,-11.825 13.01536,-19.2782 23.88144,-13.6592 3.72323,1.9254 8.11358,9.1238 8.11358,13.3031 0,4.5432 -4.04641,11.5722 -7.93616,13.7859 l -4.04698,2.3031 -0.008,195.9929 -0.008,195.99276 45.52373,45.5381 c 44.35124,44.3652 45.62082,45.5042 49.29349,44.2239 11.53711,-4.0218 23.66544,10.3387 17.99408,21.306 -4.76396,9.2124 -14.50405,12.2296 -22.91756,7.099 z m 15.38764,-7.0708 c 1.49524,-1.6049 2.71861,-4.3322 2.71861,-6.0606 0,-3.7806 -5.5445,-9.688 -9.09292,-9.688 -4.38266,0 -9.57374,5.1132 -9.57374,9.4302 0,8.2452 10.33737,12.3408 15.94805,6.3184 z m -156.67445,-48.5768 c 2.998,-1.1504 6.21882,-7.8358 5.18096,-10.754 -2.57059,-7.2278 -11.09636,-9.6018 -15.80346,-4.4005 -6.81609,7.5316 1.0909,18.8121 10.6225,15.1545 z m 53.45368,-463.77776 c 6.18229,-6.1823 2.66725,-15.4379 -5.95606,-15.6831 -8.83686,-0.2512 -12.85803,10.7386 -5.92474,16.1924 4.61355,3.629 7.88262,3.4889 11.8808,-0.5093 z M 1343.085,1133.9657 c -2.1898,-1.2755 -2.3333,-7.5879 -2.3333,-102.6261 V 930.07254 l -23.6667,-0.02 c -13.0166,-0.011 -24.4289,-0.5042 -25.3605,-1.0955 -1.3023,-0.8266 -1.6105,-7.6793 -1.3333,-29.6463 l 0.3605,-28.5712 25,-0.3627 25,-0.3628 v -15.3573 -15.3573 l -5.3333,-5.0735 c -4.7631,-4.531 -5.3334,-5.7513 -5.3334,-11.4132 0,-5.4322 0.649,-6.9888 4.5334,-10.8732 3.8695,-3.8695 5.451,-4.5333 10.8,-4.5333 5.349,0 6.9305,0.6638 10.8,4.5333 3.8843,3.8844 4.5333,5.441 4.5333,10.8732 0,5.6545 -0.5725,6.8843 -5.2962,11.3779 l -5.2962,5.0381 -0.3705,19.0888 -0.3704,19.0887 -25.3334,0.6667 -25.3333,0.6666 -0.3672,21 -0.3672,21 h 24.4339 c 17.2263,0 24.9058,0.472 26.0338,1.6 1.2163,1.2163 1.6,25.8371 1.6,102.66666 v 101.0667 h 9.3334 9.3333 v 4.6667 4.6666 l -11.6667,-0.04 c -6.4166,-0.022 -12.7166,-0.6521 -14,-1.3996 z m 4.8435,-302.50036 c 1.8427,-0.7006 4.3531,-2.8041 5.5786,-4.6745 4.6332,-7.0711 -3.8977,-16.2078 -11.7798,-12.6165 -7.2341,3.2961 -7.5731,11.6604 -0.6686,16.4965 3.4943,2.4475 2.749,2.3613 6.8698,0.7945 z M 624.30725,1082.5169 c -0.48889,-0.4889 -0.88889,-70.2466 -0.88889,-155.01716 v -154.1284 l -19.35303,-19.3161 -19.35303,-19.3161 -7.32314,0.4572 c -6.85742,0.4281 -7.61935,0.161 -11.98031,-4.2 -3.99948,-3.9995 -4.65716,-5.5421 -4.65716,-10.9238 0,-5.349 0.66383,-6.9305 4.53333,-10.8 3.81926,-3.8193 5.48332,-4.5334 10.56436,-4.5334 10.55354,0 18.09578,9.4918 15.35156,19.3196 -1.06893,3.8282 -0.29334,4.8072 19.55216,24.6818 l 20.66526,20.6956 v 148.9849 c 0,81.94156 0.29756,148.98476 0.66124,148.98476 0.36368,0 9.96368,-9.2312 21.33333,-20.5137 l 20.6721,-20.5137 v -126.49096 -126.491 l -70.58486,-70.5755 -70.58486,-70.5754 -7.18221,0.3327 c -6.31909,0.2927 -7.67848,-0.1309 -11.31192,-3.5251 -10.53777,-9.8437 -3.97629,-26.9806 10.33051,-26.9806 9.97125,0 16.9088,8.014 15.54583,17.958 l -0.75506,5.5087 71.93795,71.9287 71.93795,71.9286 v 130.0169 130.01676 l -27.01191,26.9878 c -24.79091,24.7688 -29.55544,28.6427 -32.0992,26.0989 z M 579.93217,728.56624 c 7.54768,-3.439 7.13179,-13.9935 -0.67891,-17.2288 -3.1716,-1.3137 -4.39785,-1.2028 -7.23209,0.6543 -6.42303,4.2085 -6.81872,10.8108 -0.92575,15.4463 3.89862,3.0666 4.43267,3.1348 8.83675,1.1282 z m -49.3603,-103.9238 c 6.8337,-5.3754 3.10399,-15.9416 -5.71562,-16.1924 -8.64127,-0.2457 -12.43736,9.4109 -6.16516,15.6831 3.99817,3.9982 7.26724,4.1383 11.88078,0.5093 z M 103.95168,1038.8725 c -3.69894,-3.699 -4.53333,-5.5517 -4.53333,-10.0662 0,-6.8124 2.66947,-12.2378 7.21958,-14.6729 l 3.44709,-1.8449 V 771.40584 530.52314 l -3.10758,-1.6631 c -4.5099,-2.4137 -7.55909,-8.381 -7.55909,-14.7933 0,-4.5843 0.8184,-6.4126 4.53333,-10.1276 3.86951,-3.8695 5.45098,-4.5333 10.8,-4.5333 5.34902,0 6.9305,0.6638 10.8,4.5333 3.88434,3.8844 4.53334,5.441 4.53334,10.8731 0,5.662 -0.57023,6.8823 -5.33334,11.4133 l -5.33333,5.0735 v 240.7486 240.74866 l 3.11297,1.4184 c 4.43243,2.0195 7.5537,8.0236 7.5537,14.5302 0,4.5843 -0.81841,6.4126 -4.53334,10.1276 -3.8695,3.8695 -5.45098,4.5333 -10.8,4.5333 -5.34902,0 -6.93049,-0.6638 -10.8,-4.5333 z m 18.3698,-6.1657 c 4.3341,-5.8316 -0.47866,-14.6343 -8.0011,-14.6343 -7.25041,0 -11.43242,9.271 -6.82448,15.1291 3.78742,4.8149 11.05976,4.5722 14.82558,-0.4948 z m -2.78759,-509.67666 c 7.72569,-5.9316 4.54481,-16.9576 -4.89208,-16.9576 -5.60362,0 -10.4348,5.5457 -9.24197,10.6089 1.57514,6.686 9.22137,10.1205 14.13405,6.3487 z m 140.44487,517.86166 c -8.79669,-5.3642 -9.49067,-17.7685 -1.39132,-24.8692 l 4.61947,-4.05 0.43905,-19.00126 c 0.34881,-15.096 0.85011,-19.2606 2.43905,-20.263 1.20868,-0.7625 39.7669,-1.2697 97.45265,-1.2821 l 95.45265,-0.02 1.48955,-3.2692 c 2.1596,-4.7398 8.93844,-7.838 15.28655,-6.9865 19.45613,2.6096 17.07714,30.9224 -2.59826,30.9224 -5.44542,0 -6.56066,-0.5702 -11.08338,-5.6667 l -5.02874,-5.6666 h -92.15217 -92.15218 l 0.008,15.6666 0.008,15.66666 4.04697,2.3031 c 3.88975,2.2137 7.93617,9.2427 7.93617,13.7859 0,4.0656 -4.03023,10.6872 -7.89394,12.9696 -5.03712,2.9755 -11.76356,2.8802 -16.87899,-0.2392 z m 15.43959,-6.8193 c 3.60364,-3.6037 3.35795,-8.7633 -0.60607,-12.7273 -3.99817,-3.9982 -7.26724,-4.1383 -11.88079,-0.5093 -4.04273,3.18 -4.62193,8.3935 -1.43754,12.9399 2.71341,3.8739 10.18789,4.0332 13.9244,0.2967 z m 204.72727,-51.27276 c 3.99819,-3.9981 4.13832,-7.2672 0.50929,-11.8807 -5.31485,-6.7568 -15.90322,-3.2752 -15.90322,5.2291 0,9.0961 9.0423,13.0033 15.39393,6.6516 z m -169.8693,57.22906 c -10.2594,-8.6327 -7.28798,-23.9426 5.30502,-27.3336 6.44445,-1.7353 12.9771,0.7538 17.29054,6.588 l 3.04796,4.1226 h 60.83184 60.83185 l 3.04796,-4.1226 c 6.25117,-8.4551 16.9195,-9.5396 24.01764,-2.4415 6.92009,6.9201 6.07289,17.3898 -1.91568,23.6736 -6.64543,5.2273 -20.3312,2.1914 -22.61923,-5.0175 -0.86888,-2.7376 -1.35271,-2.7587 -63.29688,-2.7587 -60.76403,0 -62.43935,0.069 -63.10115,2.5997 -0.9722,3.7178 -8.79065,8.0562 -14.52887,8.062 -3.30104,0 -6.20605,-1.0959 -8.911,-3.372 z m 16.03704,-5.4963 c 3.01276,-2.7265 3.20976,-10.1648 0.34508,-13.0295 -6.69017,-6.6901 -18.25132,-0.964 -16.01813,7.9338 1.75579,6.9956 10.45015,9.8224 15.67305,5.0957 z m 154.34155,-1.3065 c 1.5199,-1.9322 2.76344,-4.6595 2.76344,-6.0606 0,-3.5484 -5.90736,-9.0929 -9.68797,-9.0929 -7.43249,0 -11.85893,10.6074 -6.77204,16.2283 3.37643,3.7309 10.34663,3.184 13.69657,-1.0748 z m -14.13789,-93.82516 c -1.59573,-0.6432 -4.25857,-3.0052 -5.91741,-5.2489 l -3.01608,-4.0794 h -94.98735 c -84.57437,0 -95.21705,-0.2297 -97.08259,-2.0953 -1.69652,-1.6965 -2.09524,-5.4991 -2.09524,-19.982 v -17.8868 l -4.74895,-4.3521 c -8.55036,-7.8358 -7.42561,-19.8553 2.40121,-25.6601 8.33908,-4.926 20.65351,0.7617 23.14542,10.6903 1.25775,5.0112 -2.26092,12.882 -7.13166,15.9526 l -4.22997,2.6667 -0.0513,15.6667 -0.0514,15.6666 h 92.33334 92.33333 l 3.67544,-4.6064 c 6.3803,-7.9964 16.65567,-8.8573 23.54058,-1.9724 6.93461,6.9346 6.09488,17.3988 -1.90092,23.6883 -3.85038,3.0287 -10.8828,3.7018 -16.21643,1.5522 z m 15.67964,-10.9312 c 2.12851,-5.1386 -0.35192,-10.3807 -5.82224,-12.3045 -5.03255,-1.7699 -10.79185,2.5113 -11.38037,8.4596 -1.05232,10.6361 13.08113,13.7951 17.20261,3.8449 z m -206.87509,-48.5769 c 3.54291,-4.5041 3.50142,-8.1962 -0.13564,-12.0676 -5.75072,-6.1214 -15.76758,-2.1855 -15.76758,6.1954 0,8.5867 10.66918,12.5262 15.90322,5.8722 z m 907.93873,58.8423 c -3.5182,-1.9119 -7.8419,-9.2121 -7.8419,-13.2402 0,-4.5432 4.0464,-11.5722 7.9361,-13.7859 l 4.047,-2.3031 0.01,-86.7125 0.01,-86.7125 -4.1322,-2.441 c -3.9824,-2.3529 -7.8669,-9.0461 -7.8669,-13.5563 0,-4.1793 4.3903,-11.3777 8.1135,-13.3031 4.918,-2.5431 13.198,-2.4748 16.9307,0.1397 3.8255,2.6795 6.9571,8.7705 6.9508,13.5195 -0.01,4.8838 -4.4512,12.0571 -8.6586,13.9741 l -3.3364,1.5201 v 86.083 86.083 l 5.4291,4.703 c 4.2382,3.6713 5.5865,5.8985 6.1465,10.1527 1.7335,13.1705 -11.9149,22.3023 -23.7337,15.8795 z m 15.0531,-6.8692 c 3.7309,-3.3764 3.1839,-10.3466 -1.0749,-13.6966 -1.9322,-1.5198 -4.6595,-2.7634 -6.0606,-2.7634 -3.6493,0 -9.0929,5.9504 -9.0929,9.9394 0,7.3745 10.5851,11.6277 16.2284,6.5206 z m 0.105,-205.491 c 3.1976,-2.808 3.0049,-9.9479 -0.3506,-12.9846 -3.8018,-3.4405 -10.4891,-3.14 -13.5239,0.6078 -7.7761,9.603 4.5309,20.5815 13.8745,12.3768 z m -885.66672,161.3623 c -6.36253,-3.1785 -10.19626,-10.9774 -8.35126,-16.989 l 1.34038,-4.3674 -46.49456,-46.4803 -46.49455,-46.4803 -0.004,-76.6738 -0.004,-76.6738 -25.32897,-25.5263 -25.32897,-25.5264 v -18.7162 -18.7162 l -4.02012,-2.8626 c -2.21107,-1.5744 -4.91107,-4.5855 -6,-6.6912 -7.16433,-13.8543 7.79731,-27.9827 21.90654,-20.6865 3.72323,1.9253 8.11358,9.1237 8.11358,13.303 0,4.5433 -4.04641,11.5723 -7.93616,13.7859 l -4.04698,2.3031 -0.008,16.6795 -0.008,16.6795 25.99921,25.9744 25.99999,25.9743 v 76.6723 76.6722 l 44.93094,44.9455 44.93095,44.9456 5.51102,-0.7554 c 17.53699,-2.4037 25.36392,21.8303 9.48432,29.3657 -5.83052,2.7667 -8.39694,2.7386 -14.19056,-0.1556 z m 13.33334,-6.998 c 3.7365,-3.7365 3.57725,-11.2109 -0.29668,-13.9244 -4.54635,-3.1843 -9.75987,-2.6051 -12.93988,1.4376 -3.62903,4.6135 -3.4889,7.8826 0.50929,11.8808 3.964,3.964 9.12363,4.2097 12.72727,0.606 z M 172.14563,521.46644 c 6.35162,-6.3516 2.44447,-15.3939 -6.65167,-15.3939 -8.50432,0 -11.98587,10.5883 -5.22913,15.9032 4.61355,3.629 7.88262,3.4889 11.8808,-0.5093 z m 705.04004,366.6606 c -11.24077,-4.8895 -11.90431,-22.708 -1.03012,-27.6626 l 3.26281,-1.4866 -0.0513,-36.1194 -0.0513,-36.1193 -4.28198,-2.693 c -9.09128,-5.7177 -8.95844,-19.3959 0.24854,-25.5916 10.80734,-7.2726 24.1461,0.034 24.13117,13.2184 -0.007,5.3449 -4.13735,12.5085 -7.90301,13.7037 -2.7008,0.8572 -2.75867,1.641 -2.75867,37.3625 0,35.7216 0.0579,36.5054 2.75867,37.3626 1.51725,0.4815 3.91501,2.772 5.32834,5.0898 5.04568,8.2749 2.31008,18.8069 -5.89645,22.7012 -5.51865,2.6187 -8.17089,2.6639 -13.75659,0.2343 z m 12.60268,-6.7968 c 2.19791,-1.5395 2.96335,-3.4142 2.96335,-7.2577 0,-3.8436 -0.76544,-5.7183 -2.96335,-7.2578 -4.54635,-3.1843 -9.75987,-2.6051 -12.93988,1.4376 -3.62903,4.6135 -3.48889,7.8826 0.50929,11.8808 3.7579,3.7579 8.16819,4.1826 12.43059,1.1971 z m 0,-102.6667 c 2.19791,-1.5394 2.96335,-3.4141 2.96335,-7.2577 0,-5.7438 -3.47059,-9.3333 -9.02395,-9.3333 -3.85484,0 -9.64272,5.6021 -9.64272,9.3333 0,3.7312 5.78788,9.3333 9.64272,9.3333 1.70349,0 4.43077,-0.934 6.0606,-2.0756 z m -573.38449,46.3782 -52.98551,-53.0468 v -171.8199 -171.8199 l -4.76156,-4.1413 c -11.54363,-10.04 -4.78608,-27.4747 10.64894,-27.4747 6.08486,0 13.69874,6.4379 14.84593,12.553 1.11177,5.9263 -2.31307,13.6186 -7.33614,16.4772 l -4.04697,2.3032 -0.008,170.6732 -0.008,170.6733 50.33983,50.3267 50.33983,50.3268 h 98.99351 98.99351 v -41.9102 c 0,-41.205 -0.0464,-41.9249 -2.75867,-42.7857 -3.76567,-1.1952 -7.89696,-8.3588 -7.90301,-13.7037 -0.0177,-15.7012 19.62321,-22.1 28.58074,-9.3114 4.83059,6.8967 1.25851,20.7662 -5.93644,23.0498 -2.52072,0.8001 -2.62706,2.4644 -2.96522,46.4122 l -0.35074,45.5823 -105.34783,0.3413 -105.34783,0.3413 z m 266.40843,-47.5753 c 1.8,-1.8 3.27273,-4.5273 3.27273,-6.0606 0,-3.793 -5.81244,-9.3333 -9.79168,-9.3333 -5.10054,0 -9.31942,4.2251 -9.31942,9.3333 0,8.554 9.65174,12.2472 15.83837,6.0606 z M 274.81228,418.79974 c 6.35164,-6.3516 2.44448,-15.3939 -6.65167,-15.3939 -8.5043,0 -11.98586,10.5884 -5.22912,15.9032 4.61355,3.629 7.88262,3.4889 11.88079,-0.5093 z m 139.22085,417.3243 c -1.86188,-1.013 -4.21327,-3.389 -5.22531,-5.28 l -1.84008,-3.4382 h -19.06112 c -17.48055,0 -19.17556,-0.2139 -20.44136,-2.579 -0.75914,-1.4185 -1.38024,-10.6171 -1.38024,-20.4414 0,-17.3425 -0.0904,-17.9107 -3.10758,-19.5254 -11.20993,-5.9994 -9.1841,-24.5957 3.07964,-28.27 9.01795,-2.7019 17.47172,1.7581 20.12623,10.6181 1.94447,6.49 -0.96176,13.9617 -6.70112,17.2279 l -4.04697,2.3031 -0.008,15.6667 -0.009,15.6667 h 16 c 8.88889,0 16,-0.547 16,-1.2308 0,-0.6769 1.84616,-3.0769 4.10256,-5.3333 3.4525,-3.4525 5.12647,-4.1026 10.56438,-4.1026 14.93773,0 21.38025,16.1579 10.70068,26.8375 -3.06382,3.0638 -4.98226,3.8185 -9.59839,3.7758 -3.17307,-0.029 -7.29259,-0.8822 -9.15445,-1.8951 z m 15.11657,-7.1411 c 3.56705,-3.1349 2.53215,-10.6207 -1.92651,-13.9352 -6.9407,-5.1594 -16.64498,2.3083 -13.73866,10.5723 2.38678,6.7868 9.92733,8.4056 15.66517,3.3629 z m -51.16146,-51.7569 c 1.5199,-1.9322 2.76344,-4.5513 2.76344,-5.8202 0,-1.2689 -1.24354,-3.888 -2.76344,-5.8202 -5.33153,-6.7779 -15.90322,-2.909 -15.90322,5.8202 0,8.7292 10.57169,12.5981 15.90322,5.8202 z m 85.27985,57.1006 c -3.41528,-3.0515 -4.31634,-5.0363 -4.86131,-10.708 -0.64983,-6.7628 -0.5114,-7.112 4.83796,-12.2007 l 5.50695,-5.2386 v -119.0581 -119.058 l -72.00001,-71.9907 -72,-71.9908 v 166.1034 166.1034 l 3.44708,1.8448 c 11.03076,5.9035 8.87831,24.4039 -3.26252,28.0414 -9.17484,2.7488 -17.60909,-1.647 -20.28285,-10.5712 -1.94447,-6.49 0.96176,-13.9617 6.70112,-17.2279 l 4.04697,-2.3031 0.008,-172.7334 c 0.008,-175.4206 0.0219,-175.9333 4.58198,-175.9333 0.75545,0 36.63545,35.2431 79.73333,78.318 l 78.36023,78.318 v 121.6478 121.6477 l 3.71381,1.9205 c 6.34339,3.2803 9.32362,11.7507 6.50655,18.4929 -4.42547,10.5917 -16.88147,13.8631 -25.03729,6.5759 z m 13.90458,-3.1386 c 6.37152,-3.3935 8.01887,-9.3912 3.91235,-14.2443 -3.5984,-4.2526 -8.50292,-4.8371 -12.72437,-1.5165 -6.89626,5.4246 -3.89071,14.864 5.47869,17.2067 0.23155,0.058 1.73155,-0.5928 3.33333,-1.4459 z m -151.38433,-52.5245 c 6.5979,-4.6213 2.07206,-16.591 -6.27322,-16.591 -4.2156,0 -9.4301,5.161 -9.4301,9.3333 0,1.2689 1.24354,3.888 2.76344,5.8202 3.18001,4.0427 8.39353,4.6219 12.93988,1.4375 z m 190.80532,57.4049 c -3.51821,-1.912 -7.84197,-9.2121 -7.84197,-13.2403 0,-4.5102 3.88458,-11.2034 7.86785,-13.5563 l 4.13215,-2.441 v -60.4325 -60.4326 l -5.2319,-4.977 c -6.33824,-6.0294 -7.73482,-10.6604 -5.21309,-17.286 4.19843,-11.031 17.27227,-14.085 25.41935,-5.9379 7.26069,7.2607 5.95117,19.8877 -2.53346,24.4285 l -3.10757,1.6631 v 61.7278 c 0,60.8993 0.0368,61.7474 2.73801,63.1931 3.76721,2.0162 7.91766,9.1895 7.92367,13.6947 0.007,4.749 -3.12522,10.84 -6.95073,13.5195 -3.67387,2.5733 -12.53571,2.6129 -17.20231,0.077 z m 15.22271,-7.0855 c 6.30217,-5.5386 -1.39662,-18.283 -9.35408,-15.4845 -5.1035,1.7948 -7.99186,7.3424 -6.3111,12.1216 2.38679,6.7868 9.92734,8.4056 15.66518,3.3629 z m -0.39802,-153.5771 c 1.48148,-1.4815 2.66667,-4.4444 2.66667,-6.6667 0,-8.7291 -10.57169,-12.5981 -15.90323,-5.8202 -3.5429,4.5041 -3.50141,8.1962 0.13564,12.0676 3.59535,3.8271 9.50403,4.0162 13.10092,0.4193 z m -117.08024,109.2992 c -5.69976,-3.4751 -8.96509,-10.9354 -7.2427,-16.5475 1.22472,-3.9906 0.76514,-4.5804 -19.87835,-25.5097 l -21.13204,-21.4247 v -94.9621 -94.962 l -5.33334,-5.0735 c -4.3494,-4.1375 -5.33333,-5.9847 -5.33333,-10.0128 0,-9.9696 6.71169,-16.8069 16.49815,-16.8069 5.9828,0 12.29888,5.2339 14.27482,11.829 1.93404,6.4553 -0.84013,13.5451 -6.64082,16.9717 l -4.13215,2.4409 v 93.8047 93.8047 l 19.5256,19.2262 c 19.32766,19.0312 19.57602,19.2181 24.49667,18.4313 17.77532,-2.8424 25.99892,21.7996 9.83481,29.47 -5.72617,2.7172 -9.65972,2.5383 -14.93732,-0.6793 z m 14.41358,-6.6325 c 5.73134,-5.7314 1.51485,-16 -6.5699,-16 -4.2156,0 -9.4301,5.161 -9.4301,9.3333 0,1.2689 1.24354,3.888 2.76344,5.8202 3.38101,4.2983 9.39986,4.6832 13.23656,0.8465 z m -51.27274,-256.6061 c 6.20416,-6.2042 2.44983,-15.3939 -6.28895,-15.3939 -8.98885,0 -12.63318,10.3645 -5.59184,15.9032 4.61355,3.629 7.88262,3.4889 11.88079,-0.5093 z m 396.46377,263.9435 c -5.11821,-2.7819 -7.85769,-7.8176 -7.85769,-14.444 0,-6.3518 3.40404,-12.1014 8.03478,-13.5711 2.58519,-0.8205 2.63188,-2.3932 2.63188,-88.6557 0,-86.2624 -0.0467,-87.8351 -2.63188,-88.6556 -8.48384,-2.6927 -11.01573,-17.2046 -4.26292,-24.4335 7.13975,-7.6431 20.38583,-6.2969 24.95354,2.536 4.2202,8.161 1.02653,19.6377 -6.09352,21.8975 -2.58519,0.8205 -2.63188,2.3932 -2.63188,88.6556 0,87.6255 0.007,87.8223 2.75866,88.6959 3.76567,1.1952 7.89697,8.3588 7.90302,13.7037 0.0139,12.277 -12.29754,19.9818 -22.80399,14.2712 z m 13.55015,-7.1297 c 6.41327,-5.1931 2.14352,-16.2077 -6.28283,-16.2077 -3.97924,0 -9.79168,5.5403 -9.79168,9.3333 0,3.793 5.81244,9.3333 9.79168,9.3333 1.78543,0 4.61269,-1.1065 6.28283,-2.4589 z m 0.58853,-205.5371 c 3.30312,-3.6499 2.92603,-10.6992 -0.73076,-13.6603 -8.61557,-6.9764 -20.07763,4.0268 -13.2442,12.714 3.52344,4.4794 10.35873,4.9422 13.97496,0.9463 z m 345.0899,212.7112 c -2.3359,-1.016 -5.2013,-3.6925 -6.3676,-5.9479 l -2.1205,-4.1006 h -44.3657 c -32.729,0 -44.7855,-0.4197 -45.9658,-1.6 -1.208,-1.208 -1.6,-20.7171 -1.6,-79.6269 v -78.027 l 51.3333,-51.3957 51.3334,-51.3957 v -75.2945 -75.2946 l -19.5703,-19.6029 c -17.0093,-17.0378 -19.9066,-19.4229 -22.1404,-18.2274 -1.4136,0.7565 -4.5461,1.0048 -6.9611,0.5517 -9.752,-1.8295 -15.6232,-11.1132 -12.676,-20.0434 6.1353,-18.5901 32.5358,-12.7553 30.3423,6.7059 l -0.6358,5.6409 20.4873,20.4553 20.4873,20.4554 v 79.3097 79.3097 l -51.3333,51.3957 -51.3334,51.3957 v 73.6441 73.644 h 41.2991 41.2991 l 2.0568,-3.9774 c 8.4862,-16.4104 34.123,-4.7027 28.3106,12.9287 -1.8679,5.6659 -8.8364,11.0766 -14.1627,10.9965 -1.9083,-0.029 -5.3807,-0.8834 -7.7166,-1.8993 z m 14.1503,-8.2283 c 1.5199,-1.9322 2.7634,-4.5513 2.7634,-5.8202 0,-1.2689 -1.2435,-3.888 -2.7634,-5.8202 -5.5527,-7.0591 -15.9032,-2.8864 -15.9032,6.4113 0,8.5043 10.5883,11.9858 15.9032,5.2291 z m -52.1547,-460.5388 c 6.0224,-5.6107 1.9268,-15.9481 -6.3184,-15.9481 -4.3169,0 -9.4301,5.1911 -9.4301,9.5738 0,3.5484 5.9073,9.0929 9.6879,9.0929 1.7284,0 4.4557,-1.2234 6.0606,-2.7186 z m -680.76004,416.9516 c -9.9939,-5.5503 -10.01543,-21.8869 -0.0356,-27.0477 l 3.71376,-1.9204 -4e-5,-60.9658 -4e-5,-60.9658 -4.61867,-3.6852 c -12.68956,-10.125 -6.48221,-28.3148 9.66256,-28.3148 5.02674,0 6.45511,0.6846 10.39198,4.9804 3.5102,3.8303 4.56306,6.1396 4.55922,10 -0.005,5.8835 -3.97484,13.077 -7.90301,14.3238 -2.73687,0.8686 -2.75867,1.362 -2.75863,62.4524 l 4e-5,61.5768 4.60812,3.6768 c 7.70555,6.1483 8.03706,16.5497 0.75942,23.8273 -3.06072,3.0608 -4.98691,3.8197 -9.59839,3.7819 -3.17307,-0.026 -7.1244,-0.7998 -8.78072,-1.7197 z m 13.49835,-6.3298 c 8.85545,-6.9657 0.13133,-20.3827 -9.88534,-15.2028 -8.73946,4.5193 -5.24616,17.3059 4.88534,17.8817 0.81777,0.047 3.06777,-1.159 5,-2.6789 z m 0.84648,-154.5699 c 5.53081,-5.5308 1.56521,-16 -6.0606,-16 -3.98906,0 -9.9394,5.4436 -9.9394,9.0929 0,7.8552 10.51337,12.3938 16,6.9071 z m 394.95573,160.5858 c -9.39262,-6.5789 -8.83572,-20.9616 1.03745,-26.7938 l 4.00683,-2.3669 v -93.3857 -93.3857 l -51.33334,-51.3203 -51.33333,-51.3204 v -76.6796 -76.6797 l -51.33334,-51.3203 -51.33333,-51.3204 v -15.67315 -15.67316 h 4 4 v 13.00649 13.00652 l 51.33333,51.3203 51.33334,51.3204 v 76.6891 76.689 l 51.33333,51.3744 51.33334,51.3744 v 96.1447 96.1446 l 4.51982,2.6668 c 9.2208,5.4404 9.45431,20.1393 0.40755,25.6554 -5.1352,3.1311 -13.88728,3.3878 -17.97165,0.527 z m 15.10488,-6.5252 c 6.08969,-6.0896 2.4978,-15.8383 -5.83562,-15.8383 -11.01093,0 -13.29373,14.3404 -2.89165,18.1651 3.77668,1.3887 5.46081,0.9397 8.72727,-2.3268 z m 35.95764,5.7156 c -8.57643,-6.7462 -8.55752,-17.9059 0.042,-24.7674 l 4.60637,-3.6754 4e-5,-93.3209 10e-6,-93.3208 -25.31562,-25.3458 -25.31564,-25.3459 -0.0589,-77.3873 -0.0589,-77.3874 -25.95879,-25.9331 -25.95878,-25.9332 v -66.3462 -66.34611 h 4.66667 4.66667 v 65.01321 65.0131 l 25.33333,25.307 25.33334,25.307 v 76.6373 76.6372 l 26,26.1186 26,26.1186 v 94.9774 94.9774 l 5.33333,5.0735 c 4.76311,4.531 5.33333,5.7513 5.33333,11.4132 0,5.4322 -0.649,6.9888 -4.53333,10.8732 -3.80185,3.8018 -5.49396,4.5333 -10.48685,4.5333 -4.0883,0 -7.10482,-0.9056 -9.62824,-2.8905 z m 14.53998,-5.2624 c 4.81786,-3.7897 4.42668,-11.0211 -0.80664,-14.9116 -3.11826,-2.3181 -4.09554,-2.4499 -7.55229,-1.018 -9.82427,4.0693 -7.36008,18.0594 3.28756,18.6646 0.81777,0.047 3.09989,-1.1842 5.07137,-2.735 z m 191.28378,6.1488 c -3.5516,-1.9301 -7.842,-9.2226 -7.842,-13.3292 0,-4.2864 4.3673,-11.4548 8.1798,-13.4263 l 3.8202,-1.9755 v -35.6783 -35.6783 l -4.1321,-2.4409 c -10.0123,-5.9144 -9.4754,-22.5436 0.8802,-27.2619 12.0315,-5.4819 24.1044,2.8861 22.7847,15.7925 -0.4943,4.8344 -1.5431,6.8018 -5.4064,10.1413 l -4.7931,4.1433 v 35.0507 35.0508 l 5,4.3221 c 4.6868,4.0514 5,4.798 5,11.9174 0,6.8933 -0.4023,7.9547 -4.3543,11.4858 -4.9492,4.4221 -13.0092,5.2166 -19.137,1.8865 z m 13.9782,-6.0927 c 7.1077,-5.5909 3.13,-16.3476 -6.0452,-16.3476 -9.7771,0 -12.4405,14.1076 -3.3545,17.7684 4.3897,1.7687 5.5722,1.5899 9.3997,-1.4208 z m 0,-102.6666 c 6.003,-4.722 4.238,-13.6059 -3.2234,-16.2243 -1.1384,-0.3995 -3.9675,0.072 -6.2868,1.0468 -9.2474,3.8882 -5.8682,17.2665 4.5102,17.8564 0.8178,0.047 3.0678,-1.159 5,-2.6789 z m 34.7131,106.2301 c -3.8843,-3.8844 -4.5333,-5.441 -4.5333,-10.8732 0,-5.6619 0.5702,-6.8822 5.3333,-11.4132 l 5.3334,-5.0735 v -61.2969 c 0,-60.8072 -0.022,-61.3039 -2.7587,-62.1724 -1.5173,-0.4816 -3.915,-2.772 -5.3284,-5.0899 -9.4334,-15.4708 9.0167,-31.9727 23.2392,-20.7852 4.2786,3.3655 6.3943,10.512 4.7793,16.1434 -1.3592,4.739 -6.1764,10.4275 -8.8305,10.4275 -1.4425,0 -1.7676,11.3586 -1.7676,61.7493 v 61.7492 l 4.1226,3.048 c 2.2674,1.6764 5.0138,5.1811 6.1032,7.7882 1.779,4.2577 1.7541,5.3331 -0.2437,10.5645 -2.6043,6.8192 -7.2474,9.7675 -15.3826,9.7675 -4.5145,0 -6.3672,-0.8344 -10.0662,-4.5333 z m 15.3767,-2.7535 c 7.1225,-3.6832 6.4044,-13.5454 -1.2161,-16.7019 -3.7303,-1.5452 -4.5954,-1.4424 -7.7788,0.9242 -5.2333,3.8905 -5.6245,11.1219 -0.8067,14.9116 4.2575,3.3489 4.892,3.405 9.8016,0.8661 z m 2.6599,-156.2264 c 3.629,-4.6135 3.4889,-7.8826 -0.5093,-11.8807 -6.3516,-6.3517 -15.3939,-2.4445 -15.3939,6.6516 0,8.5043 10.5883,11.9859 15.9032,5.2291 z m -476.93648,110.1743 c -4.79033,-2.9207 -6.96943,-7.2239 -6.96177,-13.7479 0.007,-5.2126 4.17989,-12.369 7.90301,-13.5507 l 2.75867,-0.8755 v -170.9175 -170.9176 l -45.10966,-45.095 -45.10967,-45.095 -4.7607,0.8931 c -6.11046,1.1463 -13.75636,-2.3331 -16.41204,-7.4686 -7.57506,-14.6485 7.77064,-29.743 21.6403,-21.2861 5.71598,3.4853 7.34046,6.9801 6.92068,14.889 l -0.35274,6.646 46.25858,46.2727 46.25858,46.2727 v 172.9031 c 0,170.9736 0.0293,172.9125 2.63203,173.7385 7.0029,2.2227 10.65088,16.3492 5.9537,23.0553 -4.82541,6.8892 -14.27445,8.7614 -21.61897,4.2835 z m 15.04881,-6.6783 c 3.44056,-3.8018 3.14006,-10.4891 -0.60773,-13.5239 -6.35689,-5.1475 -15.18561,-1.1508 -15.18561,6.8744 0,8.1223 10.47082,12.5308 15.79334,6.6495 z M 582.81229,213.46644 c 3.99819,-3.9982 4.13832,-7.2672 0.50929,-11.8808 -5.37916,-6.8385 -16.34766,-2.9334 -16.34766,5.8202 0,8.554 9.65174,12.2472 15.83837,6.0606 z m 601.97941,469.567 c -3.9195,-1.9833 -9.3733,-9.6642 -9.3733,-13.2009 0,-4.8505 3.9293,-11.8433 7.9361,-14.1236 l 4.047,-2.3031 0.01,-145.0043 0.01,-145.0043 -51.3365,-51.385 -51.3333,-51.385 v -66.6107 -66.61071 h 4.6667 4.6666 v 65.00661 65.0065 l 50.6667,50.6536 50.6667,50.6535 v 146.4921 146.492 l 5.4301,4.8479 c 4.2284,3.7749 5.591,6.0713 6.157,10.3763 1.6105,12.2492 -11.3127,21.6151 -22.2138,16.0991 z m 13.2933,-7.6276 c 1.4815,-1.4815 2.6667,-4.4444 2.6667,-6.6667 0,-8.7291 -10.5717,-12.5981 -15.9032,-5.8202 -3.5429,4.5041 -3.5014,8.1962 0.1356,12.0676 3.5954,3.8271 9.504,4.0162 13.1009,0.4193 z m -987.87144,-95.0197 c -8.39739,-4.3155 -11.12134,-15.699 -5.60905,-23.4403 1.58572,-2.2269 4.06754,-4.4249 5.51516,-4.8843 2.58501,-0.8205 2.63202,-2.3877 2.63198,-87.7456 l -4e-5,-86.9101 -4.60637,-3.6754 c -7.99636,-6.3803 -8.85731,-16.6557 -1.97241,-23.5406 9.98917,-9.9892 26.57885,-2.9401 26.57885,11.2935 0,6.0469 -4.96953,13.9225 -8.78519,13.9225 -1.60069,0 -1.88148,13.0992 -1.88148,87.7747 v 87.7747 l 3.44708,1.8448 c 6.76422,3.6201 9.19411,13.5866 5.19702,21.3161 -3.59856,6.9589 -13.36638,9.9441 -20.51555,6.27 z m 13.54447,-7.3136 c 5.46141,-6.1081 1.45458,-16.3334 -6.40028,-16.3334 -3.98905,0 -9.93939,5.4436 -9.93939,9.0929 0,1.4011 1.24354,4.1284 2.76344,6.0606 3.30283,4.1989 10.3307,4.8097 13.57623,1.1799 z m 0,-205.3334 c 5.7463,-6.4267 1.01757,-16.3333 -7.79635,-16.3333 -2.84217,0 -8.54332,6.0679 -8.54332,9.0929 0,1.4011 1.24354,4.1284 2.76344,6.0606 3.30283,4.1989 10.3307,4.8096 13.57623,1.1798 z m 343.96042,211.6611 c -5.30167,-3.2324 -7.39857,-8.1648 -6.59629,-15.516 l 0.6026,-5.5216 -40.15321,-39.9654 -40.1532,-39.9654 -5.49392,0.6106 c -10.24836,1.1389 -17.83941,-5.7786 -17.83941,-16.2566 0,-3.5268 1.14564,-6.0026 4.44217,-9.5998 3.8133,-4.161 5.30946,-4.8661 10.56812,-4.9804 4.28827,-0.093 7.25543,0.705 9.89116,2.6609 4.74646,3.5221 7.66431,11.6647 5.94615,16.5934 -1.18499,3.3993 0.64867,5.4577 39.10811,43.9016 39.14368,39.1279 40.47636,40.3077 44.52656,39.4181 10.03777,-2.2046 18.85107,5.0585 18.85107,15.5353 0,12.7458 -12.72943,19.774 -23.69991,13.0853 z m 15.60313,-7.5076 c 3.62903,-4.6135 3.4889,-7.8826 -0.50929,-11.8807 -6.08968,-6.0897 -15.83837,-2.4978 -15.83837,5.8356 0,9.1752 10.75672,13.1529 16.34766,6.0451 z M 480.73027,469.13024 c 6.91632,-8.7927 -4.89225,-19.949 -13.0605,-12.3391 -3.51467,3.2744 -3.86988,10.0197 -0.71143,13.5097 3.41376,3.7722 10.34753,3.1828 13.77193,-1.1706 z m 499.20559,111.6355 c -3.73761,-1.5102 -8.13283,-7.2399 -9.16757,-11.9511 -1.11382,-5.0711 2.16302,-12.5915 6.81414,-15.6384 2.41531,-1.5823 6.18679,-2.4371 10.75267,-2.4371 h 7.03252 l 13.84678,-13.7981 c 13.8415,-13.793 13.8465,-13.8004 13.2102,-19.4458 -1.1702,-10.3818 5.7147,-18.0894 16.1586,-18.0894 9.5769,0 17.2846,11.2247 14.1759,20.6442 -2.4793,7.5124 -12.2577,12.7154 -19.0461,10.1345 -2.9276,-1.1131 -4.5731,0.1424 -17.9087,13.6645 -14.5653,14.7688 -14.68,14.9349 -14.0785,20.384 1.3811,12.5123 -10.1281,21.2446 -21.78994,16.5327 z m 13.04419,-7.5666 c 3.29894,-2.9855 3.17638,-10.3886 -0.22835,-13.7933 -3.60364,-3.6036 -8.76327,-3.358 -12.72727,0.6061 -3.99818,3.9981 -4.13832,7.2672 -0.50929,11.8807 3.24397,4.1241 9.66329,4.747 13.46491,1.3065 z m 51.16555,-51.7327 c 3.9843,-3.9843 4.1882,-8.5752 0.5542,-12.4759 -3.2745,-3.5146 -10.0197,-3.8698 -13.5098,-0.7114 -3.7309,3.3764 -3.1839,10.3466 1.0749,13.6966 4.6135,3.629 7.8826,3.4889 11.8807,-0.5093 z m -473.50699,8.0602 c -9.99707,-4.3916 -13.19349,-16.6532 -6.43507,-24.6852 1.89854,-2.2562 4.29854,-4.1023 5.33334,-4.1023 1.60565,0 1.88148,-17.3965 1.88148,-118.6666 v -118.6667 h -67.24349 c -65.77626,0 -67.2617,0.057 -68.07881,2.6319 -1.45988,4.5996 -7.22205,8.0348 -13.47779,8.0348 -15.39124,0 -21.87305,-20.2403 -9.15125,-28.576 7.46595,-4.8919 19.12725,-1.9609 22.60084,5.6805 l 1.31617,2.8955 h 70.08383 c 52.73187,0 70.47998,0.3961 71.68383,1.6 1.22083,1.2208 1.6,30.1452 1.6,122.0534 v 120.4534 l 5.33333,5.0735 c 4.53327,4.3123 5.33334,5.8951 5.33334,10.5505 0,3.0123 -0.69248,6.9968 -1.53884,8.8544 -3.0226,6.6339 -12.26488,9.9333 -19.24091,6.8689 z m 11.24184,-7.1208 c 6.81824,-5.7694 3.14097,-16.3333 -5.68555,-16.3333 -8.6363,0 -12.29273,9.9536 -5.85846,15.948 3.58004,3.3353 7.88777,3.4791 11.54401,0.3853 z M 429.42578,264.73094 c 5.61497,-6.2045 -1.82749,-17.9766 -9.63016,-15.2325 -8.26509,2.9067 -9.21043,13.8979 -1.47508,17.1504 4.80877,2.0219 8.04568,1.4629 11.10524,-1.9179 z m 499.99259,264.8209 c -5.75232,-2.5622 -8.79179,-6.5203 -9.59279,-12.4922 -0.84762,-6.3194 2.26041,-13.1039 6.99025,-15.259 l 3.2692,-1.4895 v -94.7992 -94.7991 l -25.33333,-25.307 -25.33334,-25.307 v -66.3465 -66.34651 h 4.66667 4.66667 v 65.01321 65.0131 l 25.33333,25.307 25.33334,25.307 v 95.2186 95.2186 l 5.28457,4.5234 c 6.31703,5.4071 7.86304,11.0714 4.93475,18.0798 -3.31819,7.9416 -12.63628,11.8428 -20.21932,8.4653 z m 12.0606,-8.0854 c 6.35164,-6.3516 2.44448,-15.3939 -6.65167,-15.3939 -8.50431,0 -11.98587,10.5883 -5.22912,15.9032 4.61355,3.629 7.88261,3.4889 11.88079,-0.5093 z m 349.49493,-2.9495 c -0.4889,-0.4889 -0.8889,-47.1447 -0.8889,-103.6795 v -102.7906 l -26,-25.9743 -26,-25.9744 v -18.923 c 0,-17.9623 -0.14,-18.9674 -2.7586,-19.7985 -3.7657,-1.1952 -7.897,-8.3588 -7.9031,-13.7037 -0.018,-15.7012 19.6233,-22.1001 28.5808,-9.3114 4.8369,6.9056 1.2574,20.7666 -5.9539,23.0553 -2.4416,0.775 -2.6318,2.0823 -2.6318,18.0829 v 17.2474 l 25.3333,25.2908 25.3333,25.2906 v 101.372 101.372 h 21.3334 21.3333 v -92.4414 -92.4414 l -3.4471,-1.8448 c -6.7583,-3.617 -9.5981,-15.9499 -5.1386,-22.3167 2.6228,-3.7446 8.7408,-6.9557 13.2524,-6.9557 4.5115,0 10.6296,3.2111 13.2524,6.9557 4.5125,6.4425 0.8534,20.8947 -5.8271,23.0151 -2.7556,0.8745 -2.7587,0.9834 -2.7587,96.519 0,72.6116 -0.3853,96.0288 -1.6,97.2435 -1.7304,1.7304 -55.823,2.3992 -57.5111,0.7111 z m 60.519,-201.57 c 6.4444,-5.2184 2.3256,-16.2078 -6.0745,-16.2078 -5.3353,0 -9.1111,3.9612 -9.1111,9.5583 0,4.7993 4.3104,9.1084 9.1111,9.1084 1.6708,0 4.4043,-1.1065 6.0745,-2.4589 z M 1249.479,213.46644 c 3.9982,-3.9982 4.1383,-7.2672 0.5093,-11.8808 -5.591,-7.1077 -16.3477,-3.13 -16.3477,6.0452 0,8.3334 9.7487,11.9253 15.8384,5.8356 z M 107.93584,478.17034 c -7.63401,-3.2777 -10.855876,-14.375 -6.57622,-22.6509 5.24589,-10.1445 22.45251,-9.7556 27.17729,0.6142 1.52351,3.3437 1.59166,3.3555 17.20551,2.9813 l 15.67593,-0.3758 0.34201,-98.6153 0.342,-98.6154 -26.00867,-26.1273 -26.00867,-26.1273 v -40.924 -40.92401 h 4.66666 4.66667 v 39.01321 39.0131 l 25.33333,25.307 25.33334,25.307 v 104.7465 c 0,79.6918 -0.38271,105.1292 -1.6,106.3465 -1.08576,1.0858 -7.36119,1.6 -19.52537,1.6 h -17.92536 l -4.14331,4.7931 c -3.38091,3.9112 -5.24699,4.8901 -10.14131,5.3201 -3.29889,0.2899 -7.26512,-0.017 -8.81383,-0.682 z m 13.47888,-8.0938 c 3.30313,-3.6499 2.92603,-10.6992 -0.73075,-13.6603 -8.61558,-6.9765 -20.07763,4.0267 -13.24421,12.714 3.52345,4.4793 10.35873,4.9422 13.97496,0.9463 z m 291.52827,5.9523 c -5.09736,-4.2891 -7.56811,-11.3342 -5.77694,-16.4724 1.28053,-3.6733 0.12466,-4.9587 -45.21679,-50.2863 l -46.53091,-46.5167 V 245.07964 127.40583 h 4.66667 4.66666 v 116.32611 116.3261 l 44.85699,44.8715 c 43.69575,43.7099 44.95458,44.8375 48.62684,43.5574 8.47962,-2.956 19.84951,5.3042 19.84951,14.4207 0,13.6911 -15.09963,21.5714 -25.14203,13.1212 z m 15.51202,-5.3653 c 6.34766,-4.4461 1.94432,-16.591 -6.01535,-16.591 -3.97624,0 -9.68797,5.6127 -9.68797,9.5201 0,4.12 5.09385,9.1465 9.26908,9.1465 1.909,0 4.80441,-0.934 6.43424,-2.0756 z m 86.38438,4.6404 c -2.81846,-2.4746 -4.99542,-5.8272 -5.48768,-8.4511 -1.11177,-5.9263 2.31307,-13.6186 7.33614,-16.4772 l 4.04697,-2.3031 0.008,-67 0.009,-67 h -75.73334 c -57.12592,0 -76.12645,-0.3932 -77.33333,-1.6 -1.21344,-1.2135 -1.6,-23.763 -1.6,-93.3334 v -91.73331 h 4.66666 4.66667 v 88.66671 88.6666 l 75,0.02 c 44.91271,0.012 75.80234,0.5274 77,1.2842 1.72874,1.0923 2.04992,10.7949 2.3681,71.535 l 0.3681,70.2712 4.72679,4.1113 c 3.5379,3.0772 4.90744,5.482 5.44503,9.5609 1.94501,14.7581 -14.34351,23.5659 -25.48698,13.7818 z m 16.57896,-5.2314 c 3.8367,-3.8367 3.45179,-9.8556 -0.84648,-13.2366 -4.61354,-3.629 -7.88261,-3.4889 -11.88078,0.5093 -6.10903,6.109 -2.45355,15.3939 6.0606,15.3939 2.22222,0 5.18518,-1.1852 6.66666,-2.6666 z m 345.46188,7.647 c -5.24431,-2.6952 -8.45453,-8.1363 -8.37101,-14.1884 0.0836,-6.0573 4.02356,-12.7863 8.27712,-14.1363 2.57532,-0.8174 2.63202,-2.3058 2.63202,-69.092 v -68.2567 l -25.33333,-25.307 -25.33333,-25.307 v -67.0131 -67.01321 h 4 4 v 64.29071 64.2908 l 26,26.1186 26,26.1185 v 70.286 70.2859 l 3.11297,1.4184 c 4.08705,1.8621 7.55369,7.8878 7.55369,13.1297 0,11.8434 -12.25502,19.6598 -22.53813,14.3751 z m 13.43315,-7.187 c 3.29894,-2.9855 3.17638,-10.3886 -0.22835,-13.7934 -3.60364,-3.6036 -8.76327,-3.3579 -12.72727,0.6061 -3.99818,3.9982 -4.13832,7.2672 -0.50929,11.8808 3.24397,4.124 9.66329,4.7469 13.46491,1.3065 z m 86.62963,5.4963 c -8.42652,-7.0904 -8.04775,-19.7256 0.75733,-25.2633 l 4.28197,-2.693 0.0514,-160.3334 0.0513,-160.33331 h 4.66667 4.66667 v 159.84311 159.8432 l 5.33333,5.3333 c 4.28322,4.2832 5.33332,6.2962 5.33332,10.2231 0,13.9388 -14.99459,21.9188 -25.14201,13.3803 z m 16.03704,-5.4963 c 3.01276,-2.7265 3.20976,-10.1648 0.34508,-13.0295 -6.69018,-6.6902 -18.25132,-0.964 -16.01814,7.9337 1.75579,6.9957 10.45015,9.8225 15.67306,5.0958 z m -885.29758,-44.0238 c -8.661373,-4.2686 -11.141878,-16.8116 -4.81226,-24.3339 1.89852,-2.2563 4.29852,-4.1023 5.33333,-4.1023 1.5925,0 1.88148,-9.4284 1.88148,-61.3868 v -61.3867 l -5.33334,-5.0735 c -4.57211,-4.3494 -5.33333,-5.8736 -5.33333,-10.6795 0,-7.8745 2.92631,-12.7544 9.13914,-15.2403 10.79125,-4.3178 21.52753,3.0345 21.52753,14.7422 0,5.387 -0.62656,6.7001 -5.33334,11.1776 l -5.33333,5.0735 v 61.3867 c 0,51.9584 0.28898,61.3868 1.88148,61.3868 1.03481,0 3.43481,1.846 5.33333,4.1023 6.40531,7.6122 3.81362,20.1907 -5.02425,24.3845 -5.71387,2.7114 -8.34136,2.7019 -13.92644,-0.051 z m 13.14372,-6.8951 c 3.74779,-3.0348 4.0483,-9.7222 0.60773,-13.5239 -3.6354,-4.0171 -10.46161,-3.5659 -13.99416,0.9251 -6.91378,8.7894 4.65017,19.673 13.38643,12.5988 z m -0.25869,-154.0352 c 5.11992,-3.9852 3.77616,-12.9135 -2.32386,-15.4402 -5.03852,-2.0871 -9.98285,0.015 -12.1089,5.1476 -1.45435,3.5111 -1.37685,4.5975 0.53617,7.5172 3.61193,5.5125 8.99822,6.5882 13.89659,2.7754 z m 294.85085,160.8253 c -6.71172,-3.3529 -10.18517,-10.8969 -8.14794,-17.6965 2.05736,-6.8669 8.2777,-11.9695 14.58358,-11.9631 5.7773,0.01 12.96484,4.0056 14.20183,7.903 0.79337,2.4997 1.9226,2.7587 12.0292,2.7587 10.1066,0 11.23583,-0.259 12.0292,-2.7587 1.23069,-3.8775 8.41444,-7.8971 14.12432,-7.903 8.77593,-0.01 17.01096,10.0541 15.00796,18.3396 -3.42868,14.183 -19.08276,17.6291 -28.19632,6.2072 -3.51676,-4.4075 -3.93013,-4.5517 -13.04775,-4.5517 -8.9783,-10e-5 -9.55758,0.1915 -12.46388,4.1225 -2.85298,3.8589 -9.87072,7.8801 -13.74404,7.8754 -0.94022,-0.001 -3.80949,-1.0512 -6.37616,-2.3334 z m 12.91407,-7.2303 c 4.12545,-3.8757 4.18785,-10.8446 0.12253,-13.692 -4.20248,-2.9435 -9.79558,-2.5806 -12.9847,0.8425 -3.63406,3.9007 -3.43015,8.4916 0.55412,12.4758 4.04357,4.0436 8.2651,4.1718 12.308,0.3737 z m 51.8132,-0.3737 c 3.99819,-3.9981 4.13832,-7.2672 0.50929,-11.8808 -5.43236,-6.9061 -15.90322,-3.4111 -15.90322,5.3083 0,8.836 9.20172,12.7648 15.39393,6.5725 z m 294.20353,7.7551 c -5.44542,-2.7407 -8.26412,-7.9555 -8.26412,-15.2892 0,-4.8059 0.76121,-6.3302 5.33333,-10.6795 l 5.33333,-5.0735 v -35.1614 -35.1615 l -3.44708,-1.8448 c -4.45942,-2.3866 -7.21958,-7.8319 -7.21958,-14.2429 0,-11.4687 12.15585,-18.4649 22.65194,-13.0372 5.38062,2.7825 8.01473,7.0672 8.01473,13.0372 0,6.411 -2.76016,11.8563 -7.21959,14.2429 l -3.44708,1.8448 v 36.4414 c 0,30.4831 0.30762,36.4414 1.88148,36.4414 1.0348,0 3.4348,1.846 5.33333,4.1023 3.74792,4.4541 4.61488,11.9383 2.02736,17.5016 -3.37885,7.2646 -13.57087,10.6065 -20.97805,6.8784 z m 13.06921,-7.149 c 6.14411,-6.1441 2.38047,-16 -6.10988,-16 -3.15489,0 -5.14941,0.9994 -7.20204,3.609 -6.90817,8.7823 5.43311,20.2698 13.31192,12.391 z m 0.0745,-102.4589 c 3.74779,-3.0348 4.0483,-9.7221 0.60774,-13.5239 -3.6354,-4.0171 -10.46162,-3.5658 -13.99416,0.9251 -6.91379,8.7894 4.65017,19.673 13.38642,12.5988 z m -527.5141,57.2783 c -5.1942,-3.1674 -7.80903,-9.3115 -6.75856,-15.8807 0.80262,-5.0194 0.75628,-5.0793 -19.832,-25.6355 l -20.63651,-20.6043 v -69.7362 -69.7362 l -5.33333,-5.0735 c -3.10574,-2.9544 -5.39932,-6.4127 -5.49131,-8.2799 -0.60351,-12.2493 4.90162,-18.53978 16.22509,-18.53978 4.51451,0 6.36726,0.83439 10.06621,4.53334 3.88433,3.88434 4.53333,5.44094 4.53333,10.87314 0,5.6619 -0.57023,6.8822 -5.33333,11.4132 l -5.33334,5.0735 v 67.7039 67.704 l 19.48036,19.5129 c 19.2496,19.2817 19.53052,19.4975 23.71602,18.2129 9.35528,-2.8712 18.80363,5.1769 18.80363,16.0169 0,5.0268 -0.68456,6.4551 -4.98042,10.392 -5.84773,5.3591 -12.52585,6.0749 -19.12584,2.0503 z m 15.43956,-6.8194 c 3.60364,-3.6036 3.35795,-8.7633 -0.60607,-12.7273 -3.99817,-3.9982 -7.26724,-4.1383 -11.88079,-0.5093 -4.04273,3.18 -4.62193,8.3936 -1.43754,12.9399 2.71341,3.8739 10.18789,4.0332 13.9244,0.2967 z m -53.01037,-203.9678 c 5.89297,-4.6355 5.49728,-11.2378 -0.92575,-15.4463 -2.91964,-1.913 -4.00611,-1.99053 -7.51721,-0.5362 -9.79761,4.0583 -6.7887,17.092 4.27355,18.5117 0.45111,0.058 2.32734,-1.0803 4.16941,-2.5292 z m 140.69383,211.2139 c -7.91844,-4.2965 -10.12967,-16.1343 -4.30646,-23.0548 7.09044,-8.4265 19.72562,-8.0477 25.26334,0.7573 l 2.69302,4.282 35.33334,0.051 35.33333,0.051 3.68524,-4.6187 c 5.10116,-6.3932 12.27907,-8.4723 18.71154,-5.4199 11.38753,5.4037 12.88245,19.3104 2.91832,27.1481 -6.57454,5.1716 -17.72116,3.2427 -21.70352,-3.7556 l -2.27824,-4.0036 -35.72008,-0.01 -35.72007,-0.01 -5.07348,5.3333 c -4.26196,4.4803 -5.90626,5.3248 -10.27992,5.28 -2.86355,-0.029 -6.84891,-0.9446 -8.85636,-2.0338 z m 14.98324,-7.2461 c 1.46666,-1.4667 2.66666,-4.1939 2.66666,-6.0606 0,-3.7882 -5.38032,-9.9394 -8.69372,-9.9394 -2.61797,0 -7.61534,2.5303 -8.95253,4.5329 -1.74548,2.6141 -1.07817,9.1933 1.18624,11.6954 2.98551,3.299 10.38861,3.1764 13.79335,-0.2283 z m 101.90276,0.5734 c 6.69019,-6.6902 0.964,-18.2513 -7.93371,-16.0181 -6.99564,1.7558 -9.82241,10.4501 -5.09573,15.673 2.72651,3.0128 10.16477,3.2098 13.02944,0.3451 z m -217.34485,-43.1365 c -5.07273,-2.1656 -9.89165,-9.2525 -9.88626,-14.5392 0.005,-5.7773 4.00558,-12.9649 7.90301,-14.2018 2.75083,-0.8731 2.75867,-1.1139 2.75867,-84.7858 v -83.91011 h 4.66666 4.66667 v 82.72011 82.72 l 5.23189,4.977 c 2.87755,2.7374 5.6491,6.6392 6.15901,8.6709 1.21106,4.8253 -1.77916,12.5853 -6.08974,15.8036 -3.97549,2.9681 -11.50597,4.212 -15.40991,2.5453 z m 12.16935,-8.7096 c 4.04359,-4.0436 4.17175,-8.2652 0.37365,-12.308 -5.61288,-5.9747 -15.76758,-2.2212 -15.76758,5.8281 0,4.5144 4.81228,9.7526 8.95969,9.7526 1.73884,0 4.63424,-1.4727 6.43424,-3.2727 z m 960.87022,7.7089 c -5.6852,-2.8018 -8.5478,-8.4322 -8.088,-15.9083 l 0.3633,-5.9089 -20.2697,-20.4762 -20.2697,-20.4762 -0.01,-19.1666 -0.01,-19.1667 -4.047,-2.3031 c -5.6589,-3.2205 -8.6424,-10.7485 -6.7556,-17.046 5.5703,-18.5919 32.9278,-13.355 30.4066,5.8207 -0.566,4.3049 -1.9286,6.6013 -6.157,10.3763 l -5.4301,4.8478 v 15.8027 15.8027 l 19.5894,19.6222 19.5895,19.6222 5.5192,-0.7565 c 10.2961,-1.4113 17.9685,5.0881 17.9685,15.2213 0,7.0192 -3.1078,12.0864 -8.8963,14.505 -5.5833,2.3328 -8.0913,2.2562 -13.5062,-0.4124 z m 12.8646,-6.7695 c 4.2526,-3.5984 4.8371,-8.503 1.5165,-12.7244 -5.7257,-7.279 -16.5263,-3.2652 -16.2616,6.0433 0.2207,7.7614 8.8484,11.6707 14.7451,6.6811 z m -50.4621,-103 c 5.6053,-5.6053 1.5465,-16 -6.2474,-16 -4.4062,0 -9.7526,4.7799 -9.7526,8.7192 0,8.1903 10.3711,12.9097 16,7.2808 z m -530.29599,55.3039 c -4.4394,-4.4394 -4.66333,-5.0899 -4.09806,-11.9063 l 0.59793,-7.2103 -39.77942,-39.7603 -39.77941,-39.7604 -7.33203,0.4572 c -6.86742,0.4282 -7.62712,0.162 -11.98917,-4.2 -3.99948,-3.9995 -4.65716,-5.5422 -4.65716,-10.9238 0,-5.3491 0.66383,-6.9305 4.53333,-10.80004 3.86951,-3.86951 5.45099,-4.53334 10.8,-4.53334 5.39159,0 6.92243,0.65576 10.96268,4.69601 4.43939,4.43937 4.66332,5.08997 4.09808,11.90617 l -0.59793,7.2102 40.11015,40.094 c 39.01349,38.9977 40.21929,40.0635 44.10192,38.9793 9.83317,-2.7458 19.32511,4.7936 19.32511,15.35 0,5.081 -0.71408,6.7451 -4.53334,10.5643 -3.8695,3.8695 -5.45098,4.5334 -10.8,4.5334 -5.39158,0 -6.92242,-0.6558 -10.96268,-4.6961 z m 18.74527,-6.3033 c 2.00312,-2.6829 2.26957,-4.1854 1.27613,-7.1958 -2.77313,-8.4032 -14.34153,-8.6409 -17.7695,-0.365 -1.34262,3.2414 -1.23922,4.4379 0.63001,7.2907 4.30796,6.5748 11.07031,6.6899 15.86336,0.2701 z m -106.60211,-98.5069 c 7.51867,-3.4258 7.27684,-13.9334 -0.39377,-17.1107 -3.51111,-1.45433 -4.59759,-1.3768 -7.51723,0.5362 -6.42303,4.2085 -6.81872,10.8108 -0.92575,15.4463 3.89862,3.0666 4.43267,3.1348 8.83675,1.1282 z m 346.71328,106.9923 c -8.85455,-5.3995 -9.49163,-17.7687 -1.2856,-24.9607 l 4.72518,-4.1413 v -57.5253 -57.52541 h 4.66667 4.66667 v 57.71251 57.7125 l 4.13214,2.441 c 3.98327,2.3529 7.86786,9.0461 7.86786,13.5563 0,4.1793 -4.39035,11.3777 -8.11359,13.3031 -5.13351,2.6546 -11.73928,2.4275 -16.65933,-0.5727 z m 15.43958,-6.8194 c 3.60364,-3.6036 3.35795,-8.7632 -0.60606,-12.7273 -3.99818,-3.9981 -7.26724,-4.1383 -11.88079,-0.5092 -4.12404,3.2439 -4.74691,9.6633 -1.30649,13.4649 2.9855,3.2989 10.38861,3.1764 13.79334,-0.2284 z m 349.66667,-2.2164 c -1.2243,-0.494 -1.6667,-5.7328 -1.6667,-19.7364 v -19.064 l -4.4712,-3.4104 c -8.7598,-6.6814 -9.6544,-17.0933 -2.0913,-24.3392 3.3716,-3.2302 5.1967,-3.9002 10.6244,-3.9002 5.6238,0 7.1719,0.6183 10.9125,4.3589 3.7824,3.7824 4.359,5.2576 4.359,11.1525 0,6.3146 -0.3995,7.1479 -5.6667,11.8222 l -5.6667,5.0287 v 14.8188 14.8189 h 21.3334 21.3333 v -15.7747 c 0,-15.6006 -0.038,-15.7951 -3.4471,-17.6196 -6.8451,-3.6634 -9.4824,-15.246 -5.0216,-22.0541 6.0088,-9.1705 20.0505,-9.3103 26.3878,-0.2626 4.5125,6.4426 0.8534,20.8948 -5.8271,23.0151 -2.6191,0.8313 -2.7587,1.8356 -2.7587,19.8524 0,12.9819 -0.5054,19.4822 -1.6,20.5768 -1.1454,1.1454 -9.195,1.5701 -28.3333,1.4947 -14.7033,-0.058 -27.4833,-0.4079 -28.4,-0.7778 z m 8.5807,-48.6827 c 6.1214,-5.7507 2.1855,-15.7675 -6.1954,-15.7675 -8.18,0 -12.1545,9.5471 -6.4862,15.5807 3.6391,3.8737 8.6782,3.9479 12.6816,0.1868 z m 51.1605,0.4402 c 3.7478,-3.0347 4.0483,-9.7221 0.6077,-13.5239 -3.2,-3.5359 -10.1645,-3.5359 -13.3645,0 -5.3486,5.9102 -1.1373,15.9828 6.6823,15.9828 1.6708,0 4.4043,-1.1065 6.0745,-2.4589 z m -1191.40788,7.8536 c -5.9248,-2.4507 -9.33334,-7.9243 -9.33334,-14.9879 0,-6.2183 0.41649,-7.0812 5.66667,-11.7404 l 5.66667,-5.0287 v -31.4855 -31.48551 h 4 4 v 31.53881 31.5387 l 5.28458,4.5234 c 3.60329,3.0843 5.56825,6.0355 6.17621,9.2763 2.21003,11.7804 -10.52572,22.3738 -21.46079,17.8508 z m 12.2474,-8.2938 c 3.87368,-3.6391 3.94792,-8.6781 0.18685,-12.6816 -5.61288,-5.9746 -15.76758,-2.2212 -15.76758,5.8281 0,4.5951 4.83695,9.7526 9.14648,9.7526 1.84157,0 4.73698,-1.3046 6.43425,-2.8991 z m 242.00569,6.8649 c -5.28072,-3.2195 -8.75495,-10.6456 -7.54908,-16.1358 1.01536,-4.6229 6.7509,-11.83 9.41451,-11.83 1.56855,0 1.88148,-5.4331 1.88148,-32.6666 v -32.66671 h 4.66667 4.66666 v 32.44141 32.4413 l 3.44708,1.8448 c 10.19646,5.457 9.22427,22.1192 -1.59,27.2509 -5.72617,2.7173 -9.65972,2.5384 -14.93732,-0.6793 z m 14.41358,-6.6324 c 1.48148,-1.4815 2.66666,-4.4445 2.66666,-6.6667 0,-8.7292 -10.57169,-12.5982 -15.90322,-5.8202 -3.62903,4.6136 -3.4889,7.8826 0.50929,11.8808 3.964,3.964 9.12363,4.2097 12.72727,0.6061 z m 37.59745,7.1682 c -8.04548,-4.0844 -10.6642,-14.5491 -5.68447,-22.7159 1.41334,-2.3178 3.8111,-4.6083 5.32835,-5.0898 2.69017,-0.8538 2.75867,-1.6845 2.75867,-33.4524 v -32.57681 h 4.66666 4.66667 v 32.66671 c 0,26.2391 0.34779,32.6666 1.76759,32.6666 2.68062,0 7.47656,5.7066 8.86522,10.5487 3.66888,12.7926 -10.35782,24.0503 -22.36869,17.9529 z m 13.79648,-7.7743 c 3.99819,-3.9982 4.13832,-7.2672 0.50929,-11.8808 -5.31485,-6.7567 -15.90322,-3.2752 -15.90322,5.2291 0,9.0962 9.0423,13.0033 15.39393,6.6517 z m 36.65341,7.0329 c -5.40276,-3.6678 -8.79424,-11.2695 -7.43824,-16.6722 0.50991,-2.0316 3.28146,-5.9335 6.159,-8.6708 l 5.2319,-4.977 v -31.3868 -31.38671 h 4.66666 4.66667 v 32.44141 32.4413 l 3.10757,1.6631 c 4.32594,2.3152 7.5591,8.3087 7.5591,14.0128 0,6.8211 -6.73076,14.0186 -14.0008,14.9717 -4.16687,0.5464 -6.3423,0.014 -9.95186,-2.4368 z m 14.36791,-6.4788 c 5.89155,-5.4888 1.95919,-15.948 -5.99599,-15.948 -4.40622,0 -9.7526,4.7799 -9.7526,8.7192 0,1.6066 1.24355,4.5021 2.76344,6.4343 3.37815,4.2946 8.86771,4.6305 12.98515,0.7945 z m 190.80135,6.3453 c -6.18792,-4.1701 -8.1355,-8.3634 -7.26364,-15.6394 l 0.7205,-6.0128 -20.67006,-20.6378 -20.67006,-20.6377 v -15.01618 -15.01613 h 4.66666 4.66667 v 13.68453 13.68448 l 18.68583,18.6489 18.68584,18.6488 h 7.95381 c 7.11287,0 8.39005,0.436 12.07971,4.1245 4.76698,4.7654 6.369,12.6418 3.62761,17.8354 -2.3348,4.4234 -9.92141,9.3734 -14.36613,9.3734 -1.98311,0 -5.63564,-1.368 -8.11674,-3.04 z m 14.36414,-6.5258 c 6.1442,-5.7721 2.18385,-15.7675 -6.2474,-15.7675 -8.31126,0 -12.20764,9.4352 -6.43426,15.5807 3.63914,3.8737 8.67818,3.9479 12.68166,0.1868 z m -14.56398,-44.5214 c -4.3074,-2.3372 -7.68542,-8.2821 -7.67844,-13.5133 0.007,-4.8838 4.45122,-12.05703 8.65862,-13.97405 2.89062,-1.31706 3.3364,-2.3823 3.3364,-7.97281 0,-6.28072 0.10657,-6.45265 4,-6.45265 3.89342,0 4,0.17193 4,6.45265 0,5.59051 0.44577,6.65575 3.3364,7.97281 3.95973,1.80417 8.6516,9.00245 8.65861,13.28405 0.0204,12.432 -13.26813,20.1954 -24.31159,14.2033 z m 15.31658,-7.5097 c 3.30193,-3.8187 2.89417,-8.6301 -1.0671,-12.5914 -2.6268,-2.6268 -4.21938,-3.20679 -7,-2.5492 -4.28116,1.0124 -8.26624,5.3381 -8.26624,8.9729 0,9.155 10.36572,13.0693 16.33334,6.1677 z m 446.17527,7.5928 c -8.5952,-4.671 -9.7948,-17.8563 -2.2644,-24.89072 7.2289,-6.7528 21.7408,-4.22091 24.4335,4.26292 0.8157,2.57 2.2763,2.6319 62.1322,2.6319 h 61.2969 l 5.0735,-5.3333 c 4.531,-4.76315 5.7513,-5.33338 11.4132,-5.33338 5.4322,0 6.9888,0.649 10.8732,4.53334 3.8695,3.86954 4.5333,5.45094 4.5333,10.80004 0,5.349 -0.6638,6.9305 -4.5333,10.8 -3.8844,3.8843 -5.441,4.5333 -10.8732,4.5333 -5.6619,0 -6.8822,-0.5702 -11.4132,-5.3333 l -5.0735,-5.3334 h -61.2969 c -59.8559,0 -61.3165,0.062 -62.1322,2.6319 -2.2605,7.1223 -14.1892,10.3673 -22.1691,6.0307 z m 15.2227,-7.0855 c 3.5671,-3.1348 2.5322,-10.6207 -1.9265,-13.9351 -6.9407,-5.15951 -16.645,2.3082 -13.7386,10.5723 2.3868,6.7868 9.9273,8.4055 15.6651,3.3628 z m 151.295,1.6879 c 4.7312,-3.3139 6.1076,-6.9181 4.3043,-11.2716 -3.315,-8.00314 -14.0567,-7.89715 -17.399,0.1717 -1.3137,3.1716 -1.2028,4.3979 0.6543,7.2321 1.8721,2.8573 5.8352,5.4973 8.7841,5.8516 0.3868,0.047 2.0322,-0.8462 3.6563,-1.9838 z"
       id="path2340" />
  </g>
</svg>
