<?xml version="1.0" encoding="UTF-8" standalone="no"?>
<!-- Created with Inkscape (http://www.inkscape.org/) -->

<svg
   width="32.118603mm"
   height="79.226517mm"
   viewBox="0 0 32.118603 79.226517"
   version="1.1"
   id="svg5"
   inkscape:version="1.1.1 (3bf5ae0d25, 2021-09-20)"
   sodipodi:docname="hand.svg"
   xmlns:inkscape="http://www.inkscape.org/namespaces/inkscape"
   xmlns:sodipodi="http://sodipodi.sourceforge.net/DTD/sodipodi-0.dtd"
   xmlns="http://www.w3.org/2000/svg"
   xmlns:svg="http://www.w3.org/2000/svg">
  <sodipodi:namedview
     id="namedview7"
     pagecolor="#ffffff"
     bordercolor="#666666"
     borderopacity="1.0"
     inkscape:pageshadow="2"
     inkscape:pageopacity="0.0"
     inkscape:pagecheckerboard="0"
     inkscape:document-units="mm"
     showgrid="false"
     inkscape:zoom="2.6547419"
     inkscape:cx="-56.69101"
     inkscape:cy="151.99218"
     inkscape:window-width="1920"
     inkscape:window-height="1017"
     inkscape:window-x="1272"
     inkscape:window-y="49"
     inkscape:window-maximized="1"
     inkscape:current-layer="layer1" />
  <defs
     id="defs2" />
  <g
     inkscape:label="Layer 1"
     inkscape:groupmode="layer"
     id="layer1"
     transform="translate(-80.870059,-67.039971)">
    <path
       style="fill:none;stroke:#000000;stroke-width:1.065;stroke-linecap:butt;stroke-linejoin:miter;stroke-miterlimit:4;stroke-dasharray:none;stroke-opacity:1"
       d="m 100.17416,146.20771 c 0,0 2.68409,-24.16797 4.45159,-25.7063 1.7675,-1.53832 6.30599,-8.35303 6.62619,-9.92434 1.45682,-7.14912 0.84231,-14.462946 1.19597,-21.726838 0.0937,-1.924566 -0.5915,-2.354273 -2.50664,-2.142179 -2.31043,0.255871 -3.58792,5.979866 -3.58792,5.979866 0,0 -0.30196,5.282704 -0.70681,8.457301 -0.1393,1.09238 -0.30817,4.43318 -1.73426,6.19616 -1.25107,1.54663 -3.63046,1.51155 -5.62967,2.65396"
       id="path1387"
       sodipodi:nodetypes="csssscssc" />
    <path
       style="fill:none;stroke:#000000;stroke-width:1.065;stroke-linecap:butt;stroke-linejoin:miter;stroke-miterlimit:4;stroke-dasharray:none;stroke-opacity:1"
       d="m 106.35335,92.687917 -0.56378,-17.002712 c 0,0 -0.45789,-4.311082 -1.93491,-4.661602 -1.60581,-0.381084 -3.08251,0.934115 -3.08251,0.934115 v 23.321475"
       id="path1389"
       sodipodi:nodetypes="ccscc" />
    <path
       style="fill:none;stroke:#000000;stroke-width:1.065;stroke-linecap:butt;stroke-linejoin:miter;stroke-miterlimit:4;stroke-dasharray:none;stroke-opacity:1"
       d="m 100.77215,71.957718 c 0,0 -1.699278,-4.376728 -3.587923,-4.385236 -1.556793,-0.007 -2.989935,3.587919 -2.989935,3.587919 l 0.199329,24.118792"
       id="path1391"
       sodipodi:nodetypes="cscc" />
    <path
       style="fill:none;stroke:#000000;stroke-width:1.065;stroke-linecap:butt;stroke-linejoin:miter;stroke-miterlimit:4;stroke-dasharray:none;stroke-opacity:1"
       d="m 94.194292,71.160401 c 0,0 -1.440831,-2.266173 -3.089601,-2.192617 -1.62047,0.07229 -2.79061,3.986577 -2.79061,3.986577 l 0.299,21.726847"
       id="path1395"
       sodipodi:nodetypes="cscc" />
    <path
       style="fill:none;stroke:#000000;stroke-width:1.065;stroke-linecap:butt;stroke-linejoin:miter;stroke-miterlimit:4;stroke-dasharray:none;stroke-opacity:1"
       d="m 88.214421,79.930873 c 0,0 -1.65672,-4.505235 -3.37857,-4.584565 -2.4486,-0.112814 -2.70095,9.966443 -2.70095,9.966443 0,0 -1.33421,15.819619 -0.39867,27.607049 0.16023,2.0188 3.29238,4.54484 4.03642,6.42835 2.66261,6.74031 0.64782,22.37467 0.64782,22.37467"
       id="path1397"
       sodipodi:nodetypes="cscssc" />
    <path
       style="fill:none;stroke:#000000;stroke-width:0.865;stroke-linecap:butt;stroke-linejoin:miter;stroke-miterlimit:4;stroke-dasharray:none;stroke-opacity:1"
       d="m 103.86174,95.777514 -3.08959,-0.498321 h -6.378529 l -5.78054,-0.597988 -3.18926,0.597988"
       id="path4208" />
  </g>
</svg>
