<?xml version="1.0" encoding="UTF-8" standalone="no"?>
<!-- Created with Inkscape (http://www.inkscape.org/) -->

<svg
   width="32"
   height="32"
   viewBox="0 0 17.823009 13.733241"
   version="1.1"
   id="svg5"
   inkscape:version="1.1.1 (3bf5ae0d25, 2021-09-20)"
   sodipodi:docname="logo.svg"
   xmlns:inkscape="http://www.inkscape.org/namespaces/inkscape"
   xmlns:sodipodi="http://sodipodi.sourceforge.net/DTD/sodipodi-0.dtd"
   xmlns="http://www.w3.org/2000/svg"
   xmlns:svg="http://www.w3.org/2000/svg">
  <sodipodi:namedview
     id="namedview7"
     pagecolor="#cacaca"
     bordercolor="#666666"
     borderopacity="1.0"
     inkscape:pageshadow="2"
     inkscape:pageopacity="0"
     inkscape:pagecheckerboard="true"
     inkscape:document-units="mm"
     showgrid="false"
     inkscape:zoom="2.56"
     inkscape:cx="33.007812"
     inkscape:cy="60.351562"
     inkscape:window-width="1920"
     inkscape:window-height="1017"
     inkscape:window-x="1272"
     inkscape:window-y="49"
     inkscape:window-maximized="1"
     inkscape:current-layer="layer1"
     inkscape:snap-nodes="false"
     width="29.35035mm"
     height="22.35004mm" />
  <defs
     id="defs2">
    <inkscape:path-effect
       effect="powerstroke"
       id="path-effect25223"
       is_visible="true"
       lpeversion="1"
       offset_points="1.5093928,0.65773357"
       not_jump="true"
       sort_points="true"
       interpolator_type="CentripetalCatmullRom"
       interpolator_beta="0.75"
       start_linecap_type="peak"
       linejoin_type="spiro"
       miter_limit="4"
       scale_width="1"
       end_linecap_type="peak" />
    <inkscape:path-effect
       effect="simplify"
       id="path-effect25221"
       is_visible="true"
       lpeversion="1"
       steps="1"
       threshold="0.004158918"
       smooth_angles="0"
       helper_size="0"
       simplify_individual_paths="false"
       simplify_just_coalesce="false"
       step="1" />
    <rect
       x="610.98218"
       y="403.80573"
       width="119.78566"
       height="67.8032"
       id="rect17291" />
    <rect
       x="506.26392"
       y="339.01602"
       width="116.01881"
       height="100.95143"
       id="rect6191" />
    <rect
       x="567.2868"
       y="308.1279"
       width="14.314009"
       height="67.049835"
       id="rect3347" />
    <inkscape:path-effect
       effect="powerstroke"
       id="path-effect2353"
       is_visible="true"
       lpeversion="1"
       offset_points="1.5,0.5"
       not_jump="true"
       sort_points="true"
       interpolator_type="CentripetalCatmullRom"
       interpolator_beta="0.75"
       start_linecap_type="peak"
       linejoin_type="spiro"
       miter_limit="4"
       scale_width="1"
       end_linecap_type="peak" />
    <inkscape:path-effect
       effect="simplify"
       id="path-effect2351"
       is_visible="true"
       lpeversion="1"
       steps="1"
       threshold="0.004158918"
       smooth_angles="0"
       helper_size="0"
       simplify_individual_paths="false"
       simplify_just_coalesce="false"
       step="1" />
    <inkscape:path-effect
       effect="powerstroke"
       id="path-effect2346"
       is_visible="true"
       lpeversion="1"
       offset_points="1.5285588,3.9641283"
       not_jump="true"
       sort_points="true"
       interpolator_type="CentripetalCatmullRom"
       interpolator_beta="0.75"
       start_linecap_type="peak"
       linejoin_type="spiro"
       miter_limit="4"
       scale_width="1"
       end_linecap_type="peak" />
    <inkscape:path-effect
       effect="simplify"
       id="path-effect2344"
       is_visible="true"
       lpeversion="1"
       steps="1"
       threshold="0.004158918"
       smooth_angles="0"
       helper_size="0"
       simplify_individual_paths="false"
       simplify_just_coalesce="false"
       step="1" />
    <inkscape:path-effect
       effect="powerstroke"
       id="path-effect2339"
       is_visible="true"
       lpeversion="1"
       offset_points="0.90345407,3.9641283"
       not_jump="true"
       sort_points="true"
       interpolator_type="CentripetalCatmullRom"
       interpolator_beta="0.75"
       start_linecap_type="peak"
       linejoin_type="spiro"
       miter_limit="4"
       scale_width="1"
       end_linecap_type="peak" />
    <inkscape:path-effect
       effect="simplify"
       id="path-effect2337"
       is_visible="true"
       lpeversion="1"
       steps="1"
       threshold="0.004158918"
       smooth_angles="0"
       helper_size="0"
       simplify_individual_paths="false"
       simplify_just_coalesce="false"
       step="1" />
    <rect
       x="302.85431"
       y="299.84082"
       width="97.937958"
       height="52.735825"
       id="rect21599" />
    <rect
       x="352.57666"
       y="314.9082"
       width="134.09967"
       height="131.0862"
       id="rect15295" />
    <rect
       x="221.49046"
       y="260.66565"
       width="238.06458"
       height="241.07805"
       id="rect5016" />
  </defs>
  <g
     inkscape:label="Layer 1"
     inkscape:groupmode="layer"
     id="layer1"
     transform="translate(-240.19684,-203.09704)">
    <text
       xml:space="preserve"
       transform="scale(0.26458333)"
       id="text5014"
       style="font-style:normal;font-weight:normal;font-size:40px;line-height:1.25;font-family:sans-serif;white-space:pre;shape-inside:url(#rect5016);fill:#000000;fill-opacity:1;stroke:none" />
    <text
       xml:space="preserve"
       style="font-style:normal;font-weight:normal;font-size:10.5833px;line-height:1.25;font-family:sans-serif;fill:#000000;fill-opacity:1;stroke:none;stroke-width:0.264583"
       x="88.373634"
       y="88.373634"
       id="text33997"><tspan
         sodipodi:role="line"
         id="tspan33995"
         style="stroke-width:0.264583"
         x="88.373634"
         y="88.373634" /></text>
    <path
       style="fill:#000000;stroke:none;stroke-width:1px;stroke-linecap:butt;stroke-linejoin:miter;stroke-opacity:1"
       d="M -106.54245,39.420708 169.4025,-52.205802"
       id="path2357" />
    <text
       xml:space="preserve"
       transform="matrix(0.26458333,0,0,0.26458333,57.287034,86.485549)"
       id="text3345"
       style="font-style:normal;font-weight:normal;font-size:40px;line-height:1.25;font-family:sans-serif;white-space:pre;shape-inside:url(#rect3347);fill:#000000;fill-opacity:1;stroke:none" />
    <g
       aria-label="A"
       transform="matrix(0.68633984,0.72728098,0.72728098,-0.68633984,230.02869,-113.4701)"
       id="text3097"
       style="font-size:10.5833px;line-height:1.25;stroke-width:0.264583;fill:#ffffff">
      <path
         d="m 250.04838,-210.36601 h -1.09037 l -0.75447,-2.14457 h -3.32796 l -0.75447,2.14457 h -1.03869 l 2.80085,-7.6946 h 1.36425 z m -2.16007,-3.02306 -1.34875,-3.77754 -1.35392,3.77754 z"
         id="path24018"
         style="fill:#ffffff" />
    </g>
    <g
       aria-label="D"
       transform="rotate(-43.34107,-27.768232,-346.18654)"
       id="text12500"
       style="font-size:10.5833px;line-height:1.25;fill:#ffffff;stroke-width:0.264583">
      <path
         d="m -201.83474,246.57314 q 0,1.04903 -0.45992,1.90169 -0.45475,0.85266 -1.21439,1.32291 -0.5271,0.32556 -1.17822,0.47026 -0.64595,0.14469 -1.70532,0.14469 h -1.94303 v -7.6946 h 1.92236 q 1.12654,0 1.788,0.16537 0.66662,0.16019 1.12654,0.44441 0.78548,0.49093 1.22473,1.30741 0.43925,0.81649 0.43925,1.93786 z m -1.0697,-0.0155 q 0,-0.90434 -0.31522,-1.52445 -0.31523,-0.62012 -0.94051,-0.97668 -0.45475,-0.25838 -0.96635,-0.35657 -0.51159,-0.10335 -1.22473,-0.10335 h -0.96118 v 5.9376 h 0.96118 q 0.73897,0 1.28674,-0.10852 0.55294,-0.10852 1.01286,-0.40307 0.5736,-0.3669 0.85782,-0.96635 0.28939,-0.59944 0.28939,-1.49861 z"
         id="path24021"
         style="stroke-width:0.265;stroke-miterlimit:4;stroke-dasharray:none;fill:#ffffff" />
    </g>
    <g
       aria-label="D"
       transform="rotate(-43.34107,-27.768226,-346.18654)"
       id="text23690"
       style="font-size:10.5833px;line-height:1.25;fill:#e7ff55;stroke-width:0.264583;fill-opacity:1">
      <path
         d="m -204.01756,246.57314 c 0,0.69935 -0.15331,1.33325 -0.45992,1.90169 -0.30317,0.56844 -0.70796,1.00941 -1.21439,1.32291 -0.3514,0.21704 -0.74414,0.37379 -1.17822,0.47026 -0.2969,0.0665 -0.65929,0.11008 -1.08719,0.13074 -0.19275,0.009 -0.39879,0.0139 -0.61812,0.0139 h -1.94303 l 0,-7.6946 1.92236,0 c 0.75103,0 1.34703,0.0551 1.788,0.16537 0.44441,0.10679 0.81993,0.25493 1.12654,0.44441 0.52365,0.32729 0.9319,0.76309 1.22473,1.30741 0.29283,0.54433 0.43924,1.19028 0.43924,1.93786 z m -1.0697,-0.0155 c 0,-0.60289 -0.10507,-1.11104 -0.31522,-1.52445 -0.21015,-0.41341 -0.52366,-0.73897 -0.94051,-0.97668 -0.30317,-0.17225 -0.62528,-0.29111 -0.96634,-0.35657 -0.34107,-0.0689 -0.74931,-0.10335 -1.22473,-0.10335 h -0.96118 v 5.9376 l 0.96118,0 c 0.49265,0 0.92156,-0.0362 1.28674,-0.10852 0.36862,-0.0724 0.70624,-0.2067 1.01285,-0.40307 0.38241,-0.2446 0.66835,-0.56672 0.85783,-0.96635 0.19292,-0.39963 0.28938,-0.89916 0.28938,-1.49861 z"
         id="path24024"
         style="fill:#ffff00;fill-opacity:1"
         sodipodi:nodetypes="scccssccscccsscccsccscccs" />
    </g>
    <path
       style="fill:none;stroke:#ffffff;stroke-width:0.765;stroke-linecap:butt;stroke-linejoin:miter;stroke-opacity:1;stroke-miterlimit:4;stroke-dasharray:none"
       d="m 245.15778,215.80944 h 10.54199"
       id="path39246" />
  </g>
</svg>
