<svg width="62" height="62" viewBox="0 0 62 62" fill="none" xmlns="http://www.w3.org/2000/svg">
<path d="M56.5709 0.53125H5.4291C2.725 0.53125 0.53125 2.725 0.53125 5.4291V56.5709C0.53125 59.275 2.725 61.4688 5.4291 61.4688H56.5709C59.275 61.4688 61.4688 59.275 61.4688 56.5709V5.4291C61.4688 2.725 59.275 0.53125 56.5709 0.53125ZM56.5709 56.5938C22.4611 56.5861 5.40625 56.5785 5.40625 56.5709C5.41387 22.4611 5.42148 5.40625 5.4291 5.40625C39.5389 5.41387 56.5938 5.42148 56.5938 5.4291C56.5861 39.5389 56.5785 56.5938 56.5709 56.5938ZM9.56524 23.3752H18.6068V52.4576H9.56524V23.3752ZM14.0898 19.399C16.9768 19.399 19.3305 17.0529 19.3305 14.1584C19.3305 13.4702 19.1949 12.7887 18.9316 12.1529C18.6682 11.5171 18.2822 10.9394 17.7955 10.4527C17.3089 9.96608 16.7312 9.58006 16.0953 9.31669C15.4595 9.05333 14.7781 8.91777 14.0898 8.91777C13.4016 8.91777 12.7202 9.05333 12.0843 9.31669C11.4485 9.58006 10.8708 9.96608 10.3842 10.4527C9.89753 10.9394 9.5115 11.5171 9.24814 12.1529C8.98477 12.7887 8.84922 13.4702 8.84922 14.1584C8.8416 17.0529 11.1877 19.399 14.0898 19.399ZM33.308 38.0687C33.308 34.2754 34.0316 30.6039 38.7314 30.6039C43.3627 30.6039 43.4313 34.9381 43.4313 38.3125V52.4576H52.4652V36.5072C52.4652 28.6768 50.7742 22.6516 41.626 22.6516C37.2309 22.6516 34.283 25.0662 33.0719 27.3514H32.95V23.3752H24.274V52.4576H33.308V38.0687Z" fill="#4C5035"/>
</svg>
